<svg xmlns="http://www.w3.org/2000/svg" width="146" height="38" fill="none"><path fill="#fff" fill-rule="evenodd" d="M18.675 22.94c-4.35-1.277-7.49-1.813-11.525.486 2.629-5.197 6.533-7.088 10.354-4.21-1.68-3.466-1.65-5.958 3.2-6.707-3.078 2.008-1.999 4.884-2.094 7.732-2.8-.067-5.505-.883-8.748.799 2.717-1.05 5.67-.376 8.652.058 4.286.622 7.986-.106 8.108-5.17.086-3.537-1.703-6.11-4.25-7.669-9.439-5.776-19.994 3.143-18.204 13.504 1.278 7.398 8.419 11.149 15.085 10.367 1.98-.21 4.093-.888 6.109-2.053a23.233 23.233 0 0 0 3.358-2.364 15.497 15.497 0 0 1-5.842 5.32 15.514 15.514 0 0 1-9.763 1.572C-1.444 32.19-4.242 12.505 7.668 5.452c7.256-4.297 17.753-2.634 21.333 5.335 3.091 6.882-.99 14.887-10.326 12.152Z" clip-rule="evenodd"/><path fill="#fff" fill-rule="evenodd" d="M18.228 37.753c10.37 0 18.775-8.406 18.775-18.775 0-10.37-8.406-18.775-18.775-18.775-4.953 0-9.457 1.92-12.813 5.053a17.205 17.205 0 0 1 10.51-3.563c9.546 0 17.284 7.738 17.284 17.284s-7.738 17.284-17.284 17.284a17.203 17.203 0 0 1-10.51-3.563 18.707 18.707 0 0 0 12.813 5.053v.002Z" clip-rule="evenodd"/><path fill="#fff" d="M60.069 18.855a3.554 3.554 0 0 1 2.2 1.338 3.91 3.91 0 0 1 .862 2.496c0 .847-.211 1.596-.635 2.246-.408.635-1.006 1.134-1.792 1.497-.787.363-1.717.545-2.79.545h-6.83V11.142h6.535c1.073 0 1.996.173 2.767.521.787.348 1.377.832 1.77 1.452.408.62.612 1.324.612 2.11 0 .923-.25 1.694-.748 2.314-.484.62-1.135 1.059-1.951 1.316Zm-5.808-1.18h2.904c.756 0 1.338-.166 1.747-.499.408-.348.612-.84.612-1.474 0-.636-.204-1.127-.612-1.475-.409-.348-.99-.522-1.747-.522H54.26v3.97Zm3.199 6.715c.771 0 1.369-.181 1.792-.544.439-.363.658-.877.658-1.543 0-.68-.227-1.21-.68-1.588-.454-.393-1.067-.59-1.838-.59H54.26v4.265h3.199Zm20.068-9.982v12.569h-3.2v-1.588a4.27 4.27 0 0 1-1.61 1.293 4.993 4.993 0 0 1-2.132.453c-.983 0-1.853-.204-2.61-.612a4.564 4.564 0 0 1-1.791-1.838c-.424-.816-.636-1.784-.636-2.904v-7.373h3.176v6.92c0 .998.25 1.77.749 2.314.5.529 1.18.794 2.042.794.877 0 1.565-.265 2.064-.794.5-.545.749-1.316.749-2.314v-6.92h3.199Zm4.744-1.497c-.56 0-1.028-.174-1.406-.522a1.82 1.82 0 0 1-.545-1.338c0-.53.182-.968.545-1.316.378-.363.847-.545 1.406-.545.56 0 1.021.182 1.384.545.378.348.567.786.567 1.316s-.189.975-.567 1.338c-.363.348-.824.522-1.384.522Zm1.566 1.497v12.569H80.66V14.408h3.177Zm6.314-4.22v16.789h-3.177V10.189h3.177Zm2.32 10.46c0-1.271.25-2.398.75-3.381.514-.983 1.21-1.74 2.087-2.269.877-.53 1.852-.794 2.926-.794.817 0 1.596.182 2.337.545.741.348 1.331.816 1.769 1.406V10.19h3.222v16.788h-3.222v-1.86c-.393.62-.945 1.118-1.656 1.497-.71.378-1.535.567-2.473.567a5.398 5.398 0 0 1-2.903-.817c-.878-.544-1.573-1.308-2.088-2.291-.499-.998-.748-2.14-.748-3.426Zm9.892.044c0-.77-.151-1.429-.454-1.973a3.102 3.102 0 0 0-1.225-1.27 3.21 3.21 0 0 0-1.656-.454c-.59 0-1.134.143-1.633.43-.5.288-.908.712-1.225 1.271-.303.544-.454 1.195-.454 1.951s.151 1.422.454 1.997c.317.56.726.99 1.225 1.293a3.171 3.171 0 0 0 1.633.453 3.34 3.34 0 0 0 1.656-.43 3.298 3.298 0 0 0 1.225-1.271c.303-.56.454-1.225.454-1.997Zm17.848-4.65c0 .847-.204 1.64-.612 2.382-.394.74-1.021 1.338-1.883 1.792-.847.454-1.921.68-3.222.68h-2.654v6.08h-3.176V11.143h5.83c1.225 0 2.269.211 3.131.635.862.423 1.505 1.006 1.928 1.747.439.74.658 1.58.658 2.518Zm-5.853 2.291c.877 0 1.528-.196 1.951-.59.424-.408.635-.975.635-1.701 0-1.543-.862-2.314-2.586-2.314h-2.518v4.605h2.518Zm11.284-1.974a4.503 4.503 0 0 1 1.588-1.565c.666-.378 1.422-.567 2.269-.567v3.335h-.839c-.999 0-1.755.234-2.269.703-.499.469-.749 1.286-.749 2.45v6.262h-3.176V14.408h3.176v1.951Zm11.577 10.822c-1.21 0-2.299-.265-3.267-.794a5.951 5.951 0 0 1-2.291-2.292c-.545-.983-.817-2.117-.817-3.403 0-1.285.28-2.42.84-3.402a5.904 5.904 0 0 1 2.336-2.27c.983-.544 2.08-.816 3.29-.816s2.306.272 3.289.817a5.754 5.754 0 0 1 2.314 2.268c.575.984.862 2.118.862 3.403 0 1.286-.295 2.42-.884 3.403a6.033 6.033 0 0 1-2.36 2.292c-.983.53-2.087.794-3.312.794Zm0-2.768c.575 0 1.112-.136 1.611-.408a3.115 3.115 0 0 0 1.225-1.27c.302-.56.454-1.241.454-2.043 0-1.194-.318-2.11-.953-2.745-.62-.65-1.384-.975-2.292-.975-.907 0-1.671.325-2.291.975-.605.636-.907 1.55-.907 2.745s.295 2.118.884 2.768c.605.635 1.362.953 2.269.953Z"/></svg>