<svg xmlns="http://www.w3.org/2000/svg" width="158" height="38" fill="none"><path fill="#fff" d="M.33 16.09v.017l-.006.023c-.007.033-.01.066-.014.096v.026c0 .02-.006.04-.006.06l-.007.049v.01l-.003.016v.06c-.007.062-.017.125-.023.188l-.02.168c0 .023-.003.043-.006.063v.003c-.007.07-.017.138-.024.204-.006.05-.01.103-.013.155v.007l-.006.05c0 .02-.004.039-.007.059 0 .02-.003.043-.007.062v.033c0 .017 0 .033-.003.05 0 .02 0 .04-.003.063v.03c-.007.069-.01.141-.017.227 0 .04-.003.076-.006.109 0 .036-.004.076-.007.112v.079c0 .043-.003.082-.006.125v.053c0 .076-.007.149-.007.221v.654A13.463 13.463 0 0 0 4.173 28.6a13.456 13.456 0 0 0 9.508 3.901 14.37 14.37 0 0 0 2.447-.218 15.592 15.592 0 0 1-4.716-4.426 15.254 15.254 0 0 1-1.431-2.526c-.007-.017-.017-.036-.023-.053a15.528 15.528 0 0 1-1.336-6.32 15.477 15.477 0 0 1 4.166-10.596 15.571 15.571 0 0 1 7.84-4.561 15.516 15.516 0 0 1 3.565-.41c2.83 0 5.547.752 7.922 2.16l-.004-.003c-.02-.02-.046-.042-.065-.065l-.09-.086c-.01-.01-.02-.017-.026-.027l-.006-.006-.004-.007a1.719 1.719 0 0 1-.082-.076 1.626 1.626 0 0 1-.086-.082v-.007l-.006-.006s-.01-.01-.017-.014l-.099-.092-.007-.006-.043-.04-.022-.02a21.462 21.462 0 0 0-.3-.267c-.017-.013-.034-.03-.053-.043-.037-.03-.073-.063-.11-.092l-.072-.06-.04-.033-.03-.026-.016-.013-.128-.106-.007-.006-.003-.007h-.007a11.353 11.353 0 0 0-.409-.323v-.003l-.085-.066-.037-.027-.02-.016-.013-.01-.003-.003-.003-.004-.007-.006-.06-.043-.022-.017-.083-.06-.026-.019c-.017-.01-.03-.023-.046-.033l-.033-.023-.096-.07c-.007-.006-.017-.01-.023-.016l-.01-.006-.007-.007-.234-.165-.105-.076c-.01-.006-.017-.013-.027-.016-.053-.033-.105-.07-.158-.106 0 0-.007-.003-.01-.006h-.01s-.023-.017-.033-.027a2.176 2.176 0 0 0-.115-.072h-.007v-.003h-.006c-.056-.043-.116-.076-.172-.113h-.006v-.003l-.007-.007c-.06-.036-.119-.075-.178-.108l-.096-.056-.043-.027c-.016-.01-.036-.023-.056-.033h-.003l-.033-.02-.129-.075-.033-.02s-.03-.017-.043-.027l-.118-.069c-.004 0-.007-.003-.014-.006a19.038 19.038 0 0 0-.81-.43c-.007 0-.014-.006-.02-.01h-.007a3.145 3.145 0 0 0-.182-.091l-.161-.076s-.01-.007-.013-.007c0 0-.007 0-.01-.003h-.004a13.37 13.37 0 0 0-.534-.241h-.003l-.003-.003h-.007c-.04-.02-.083-.037-.122-.053l-.017-.007-.013-.006-.072-.03a.792.792 0 0 1-.08-.033 17.762 17.762 0 0 0-.501-.195l-.082-.03h-.01l-.086-.035c-.23-.083-.468-.165-.71-.241-.002 0-.006 0-.012-.004-.046-.013-.093-.03-.136-.042-.046-.014-.092-.03-.141-.043-.027-.01-.056-.017-.083-.027-.105-.03-.204-.06-.297-.085h-.006l-.04-.01c-.02-.007-.043-.01-.062-.017h-.014l-.02-.01c-.197-.053-.398-.099-.6-.148l-.356-.08a17.95 17.95 0 0 0-.607-.121l-.227-.04h-.004a5.462 5.462 0 0 0-.227-.036c-.036-.007-.07-.01-.106-.017l-.132-.02a20.352 20.352 0 0 0-2.632-.181c-.399 0-.794.013-1.194.04-.042 0-.082.003-.125.006-.439.03-.877.076-1.31.136-.078.01-.154.023-.233.033h-.007L.449 16.123v.007l-.119-.04Z"/><path fill="#fff" d="M37.494 21.803v-.013l.004-.016.01-.08v-.025c.006-.033.013-.07.016-.105v-.023l.007-.024c0-.01 0-.023.006-.033l.013-.118.01-.08c.01-.079.02-.151.026-.224v-.01c.01-.069.017-.135.024-.2l.016-.16.007-.052.01-.109v-.026c.006-.046.006-.096.01-.142v-.02c.006-.069.013-.142.016-.224v-.007c.007-.072.01-.145.013-.217v-.08c.007-.059.007-.118.01-.18 0-.083.007-.16.007-.238v-.638a13.465 13.465 0 0 0-4.03-9.44 13.458 13.458 0 0 0-9.513-3.901c-.828 0-1.645.073-2.447.221a15.555 15.555 0 0 1 4.716 4.426 15.476 15.476 0 0 1 2.794 8.899c0 3.202-.966 6.28-2.794 8.898a15.54 15.54 0 0 1-12.773 6.669c-2.83 0-5.548-.752-7.923-2.157h.004l.01.013.01.01.032.033.037.036.092.09.007.006.006.007c.05.05.11.105.168.158l.01.007.007.006c.04.036.076.073.115.109l.004.007c.069.062.135.125.207.184h.004l.003.007.139.122.01.007.03.026.134.115.027.023.006.007.11.089.012.01.014.013c.033.026.066.056.105.086l.013.01.014.01c.03.023.056.046.082.069l.01.007.006.006c.1.083.205.162.31.24.024.02.047.037.07.054l.079.059c.016.01.03.02.043.033l.026.02.126.095.04.03c.019.017.042.03.062.046l.006.007.01.006c.03.024.063.047.096.07l.033.023c.076.056.155.109.234.165H8.3l.006.01c.033.023.07.046.106.069l.026.016.086.056.092.063c.046.03.096.063.145.092l.146.093h.118l.215.204.099.06c.066.04.132.075.197.112h.007l.007.006.155.09a15.373 15.373 0 0 0 1.025.537c.01.007.02.01.027.013.06.027.115.056.175.083.178.082.36.165.534.24h.007c.042.02.089.04.131.056.014.007.027.01.043.02.06.023.12.05.178.073.146.06.3.119.466.181h.006l.007.004c.05.02.102.04.151.056h.007l.007.003c.24.089.478.168.705.24h.007l.007.007c.046.017.092.03.138.047h.012c.07.023.139.042.208.066l.06.016c.082.023.168.046.25.07.046.012.09.022.129.035h.01c.517.142 1.045.261 1.563.35h.013l.215.036h.01c.082.017.155.027.217.037h.02c.072.013.145.023.22.033h.008a18.918 18.918 0 0 0 5.26.003h.02a4.99 4.99 0 0 1 .208-.033h.016l15.706-15.706s0-.02.003-.026l.02-.004Zm23.27-2.948c.893.166 1.626.612 2.201 1.338a3.91 3.91 0 0 1 .862 2.496c0 .847-.212 1.596-.635 2.246-.409.635-1.006 1.134-1.792 1.497-.787.363-1.717.545-2.79.545h-6.83V11.142h6.534c1.074 0 1.997.173 2.768.521.786.348 1.376.832 1.77 1.452.408.62.612 1.324.612 2.11 0 .923-.25 1.694-.749 2.314-.484.62-1.134 1.059-1.95 1.316Zm-5.807-1.18h2.904c.756 0 1.338-.166 1.746-.499.409-.348.613-.84.613-1.474 0-.636-.204-1.127-.613-1.475-.408-.348-.99-.522-1.746-.522h-2.904v3.97Zm3.199 6.715c.77 0 1.368-.181 1.792-.544.438-.363.658-.877.658-1.543 0-.68-.227-1.21-.681-1.588-.454-.393-1.066-.59-1.838-.59h-3.13v4.265h3.199Zm11.378-14.2v16.788h-3.176V10.189h3.176Zm15.003 4.22v12.568H81.34V25.39a4.27 4.27 0 0 1-1.611 1.293 4.994 4.994 0 0 1-2.133.453c-.983 0-1.852-.204-2.609-.612-.756-.424-1.353-1.036-1.792-1.838-.423-.816-.635-1.784-.635-2.904v-7.373h3.176v6.92c0 .998.25 1.77.749 2.314.499.529 1.18.794 2.041.794.878 0 1.566-.265 2.065-.794.5-.545.749-1.316.749-2.314v-6.92h3.198Zm14.818 6.011c0 .454-.03.862-.091 1.225h-9.188c.076.908.393 1.619.953 2.133.56.514 1.247.771 2.064.771 1.18 0 2.02-.506 2.518-1.52h3.426c-.363 1.21-1.059 2.208-2.087 2.995-1.029.771-2.291 1.157-3.789 1.157-1.21 0-2.299-.265-3.267-.794a5.844 5.844 0 0 1-2.246-2.292c-.529-.983-.794-2.117-.794-3.403 0-1.3.265-2.442.794-3.425a5.54 5.54 0 0 1 2.224-2.269c.953-.53 2.049-.794 3.29-.794 1.194 0 2.26.257 3.198.771a5.32 5.32 0 0 1 2.2 2.201c.53.938.795 2.02.795 3.244Zm-3.29-.907c-.015-.817-.31-1.467-.885-1.951-.574-.5-1.278-.749-2.11-.749-.786 0-1.451.242-1.996.726-.53.469-.855 1.127-.975 1.974h5.966Zm17.155-3.471c0 .847-.204 1.64-.612 2.382-.394.74-1.021 1.338-1.883 1.792-.847.454-1.921.68-3.222.68h-2.654v6.08h-3.176V11.143h5.83c1.225 0 2.269.211 3.131.635.862.423 1.505 1.006 1.928 1.747.439.74.658 1.58.658 2.518Zm-5.853 2.291c.877 0 1.528-.196 1.951-.59.424-.408.635-.975.635-1.701 0-1.543-.862-2.314-2.586-2.314h-2.518v4.605h2.518Zm19.792 2.087c0 .454-.031.862-.091 1.225h-9.188c.076.908.393 1.619.953 2.133.559.514 1.247.771 2.064.771 1.18 0 2.019-.506 2.518-1.52h3.426c-.363 1.21-1.059 2.208-2.087 2.995-1.029.771-2.291 1.157-3.789 1.157-1.21 0-2.299-.265-3.267-.794a5.853 5.853 0 0 1-2.246-2.292c-.529-.983-.794-2.117-.794-3.403 0-1.3.265-2.442.794-3.425a5.544 5.544 0 0 1 2.224-2.269c.953-.53 2.049-.794 3.289-.794 1.195 0 2.261.257 3.199.771a5.325 5.325 0 0 1 2.201 2.201c.529.938.794 2.02.794 3.244Zm-3.29-.907c-.015-.817-.31-1.467-.885-1.951-.574-.5-1.278-.749-2.109-.749-.787 0-1.452.242-1.997.726-.529.469-.854 1.127-.975 1.974h5.966Zm4.791 1.134c0-1.27.25-2.397.749-3.38.514-.983 1.202-1.74 2.064-2.269.877-.53 1.853-.794 2.927-.794.938 0 1.754.19 2.45.567.711.378 1.278.855 1.701 1.43v-1.793h3.199v12.569h-3.199V25.14c-.408.59-.975 1.081-1.701 1.475-.711.378-1.535.567-2.473.567a5.397 5.397 0 0 1-2.904-.817c-.862-.544-1.55-1.308-2.064-2.291-.499-.998-.749-2.14-.749-3.426Zm9.891.045c0-.77-.151-1.429-.453-1.973-.303-.56-.711-.983-1.225-1.27a3.215 3.215 0 0 0-1.656-.454 3.22 3.22 0 0 0-1.634.43c-.499.288-.907.712-1.225 1.271-.302.544-.454 1.195-.454 1.951s.152 1.422.454 1.997c.318.56.726.99 1.225 1.293a3.172 3.172 0 0 0 1.634.453c.589 0 1.141-.143 1.656-.43a3.305 3.305 0 0 0 1.225-1.271c.302-.56.453-1.225.453-1.997Zm13.742 6.285-4.265-5.354v5.354h-3.176V10.189h3.176v9.55l4.22-5.33h4.129l-5.536 6.306 5.581 6.262h-4.129Z"/></svg>