<svg xmlns="http://www.w3.org/2000/svg" width="154" height="38" fill="none"><path fill="#fff" fill-rule="evenodd" d="M17.498 29.512a10.625 10.625 0 0 1-5.072-2.422l-.036-.032c-.25-.219-.491-.449-.72-.69l-.05-.052-.048-.052-.048-.053-.047-.052-.01-.01-.039-.044-.047-.053-.025-.03-.02-.024-.076-.09a9.884 9.884 0 0 1-.262-.32l-.004-.004a10.047 10.047 0 0 1-.245-.327l-.005-.007-.101-.144-.019-.026a10.246 10.246 0 0 1-.212-.32l-.016-.025-.009-.014a10.628 10.628 0 0 1-1.502-3.919l-.004-.025v-.006l-.03-.178-.001-.015-.008-.056-.01-.07-.004-.029-.014-.11-.008-.07c-.046-.402-.07-.809-.07-1.22v-.205c.032-1.76.5-3.522 1.42-5.117a10.653 10.653 0 0 1 4.8-4.374l.022-.01.007-.002.099-.045.024-.011.039-.017.064-.028.028-.012.101-.042.03-.012.035-.014c.249-.1.503-.193.76-.274l.006-.002.027-.009.11-.033.025-.007.068-.02.043-.012.026-.008.068-.019.044-.012.024-.006.069-.018.045-.012.023-.007.07-.017.045-.011.024-.007.069-.016.07-.016.069-.016c.743-.165 1.514-.25 2.306-.25 1.884 0 3.652.489 5.187 1.346a10.71 10.71 0 0 1 2.724 2.17L13.21 21.82l24.91-4.711a18.754 18.754 0 0 0-.383-2.317l-.01-.047a24 24 0 0 0-.093-.385C35.56 6.22 28.182.203 19.398.203c-3.285 0-6.372.842-9.059 2.321h-.001c-.55.302-1.083.63-1.598.985l-.083.057-.081.056-.081.057-.08.058-.08.057-.07.052-.01.007-.08.059-.074.056-.005.004-.08.06-.077.06-.046.035-.032.026c-.127.098-.253.198-.378.3l-.01.007c-.127.105-.253.211-.378.318l-.013.012c-.394.34-.775.699-1.14 1.072l-.181.188-.024.026c-.11.118-.222.237-.33.358l-.005.007A18.768 18.768 0 0 0 .617 17.745v.115a18.757 18.757 0 0 0 1.464 8.54c.12.28.246.553.377.82l.016.032.011.021a18.781 18.781 0 0 0 9.42 9.01l-.035-.007c1.746.764 3.63 1.27 5.604 1.472l.03.003v-8.236l-.006-.003Zm14.117 3.824.007-.005.165-.143.05-.044.148-.133.035-.032.159-.144.182-.171.137-.133.056-.053.119-.118.097-.097.1-.1.027-.028.143-.15.031-.031.172-.184.01-.012.065-.072.117-.129.077-.086.112-.129.084-.097.09-.107.102-.122.005-.006.16-.196.003-.002.155-.197.147-.191.012-.015.148-.197.002-.003c.1-.134.197-.27.293-.406h-.002a18.817 18.817 0 0 0 3.308-8.956l-8.65 1.636c-.085.25-.18.496-.284.739l-.014.032-.082.186-.027.058-.061.13-.05.102-.049.098c-.02.04-.04.082-.062.121l-.019.037a10.669 10.669 0 0 1-2.614 3.228l-.019.016-.177.144c-.032.023-.063.049-.093.072l-.074.057-.164.122-.003.003-.003.002-.19.135-.033.022a9.495 9.495 0 0 1-.4.263l-.024.015c-.068.042-.136.084-.204.124l-.009.006a7.16 7.16 0 0 1-.193.11l-.036.021a7.036 7.036 0 0 1-.2.11l-.027.013-.172.089-.053.027-.192.094-.049.022-.147.069-.077.034a4.827 4.827 0 0 1-.16.067l-.09.038a4.926 4.926 0 0 1-.13.052l-.084.032-.143.053-.105.038-.136.048-.087.029-.146.048-.055.017-.193.058-.075.021-.144.04-.069.018a6.858 6.858 0 0 1-.194.048l-.069.016c-.05.012-.101.024-.151.034l-.067.015-.199.04-.07.013-.073.012v8.232a18.787 18.787 0 0 0 10.376-4.42v.003ZM7.858 4.152c-.128.098-.253.198-.378.3l.378-.3Z" clip-rule="evenodd"/><path fill="#fff" d="M55.389 24.458h5.217v2.519h-8.393V11.142h3.176v13.316Zm12.817 2.723c-1.21 0-2.299-.265-3.267-.794a5.956 5.956 0 0 1-2.291-2.292c-.545-.983-.817-2.117-.817-3.403 0-1.285.28-2.42.84-3.402a5.91 5.91 0 0 1 2.336-2.27c.983-.544 2.08-.816 3.29-.816s2.306.272 3.29.817a5.757 5.757 0 0 1 2.313 2.268c.575.984.862 2.118.862 3.403 0 1.286-.294 2.42-.884 3.403a6.028 6.028 0 0 1-2.36 2.292c-.983.53-2.087.794-3.312.794Zm0-2.768c.575 0 1.112-.136 1.61-.408a3.11 3.11 0 0 0 1.226-1.27c.302-.56.454-1.241.454-2.043 0-1.194-.318-2.11-.953-2.745-.62-.65-1.384-.975-2.292-.975-.907 0-1.67.325-2.29.975-.606.636-.908 1.55-.908 2.745s.295 2.118.885 2.768c.605.635 1.36.953 2.268.953Zm13.81-10.209c.937 0 1.761.19 2.472.567.71.363 1.27.84 1.679 1.43v-1.793h3.199v12.66c0 1.164-.235 2.2-.704 3.107-.469.923-1.172 1.649-2.11 2.178-.937.545-2.072.817-3.403.817-1.784 0-3.251-.416-4.4-1.248-1.135-.832-1.778-1.966-1.929-3.403h3.153c.167.575.522 1.029 1.067 1.361.56.348 1.232.522 2.019.522.922 0 1.671-.28 2.246-.84.574-.544.862-1.376.862-2.495v-1.95c-.409.59-.976 1.08-1.702 1.474-.71.393-1.527.59-2.45.59a5.398 5.398 0 0 1-2.904-.817c-.877-.544-1.573-1.308-2.087-2.291-.499-.998-.749-2.14-.749-3.426 0-1.27.25-2.397.75-3.38.513-.983 1.202-1.74 2.064-2.269.877-.53 1.852-.794 2.926-.794Zm4.15 6.488c0-.77-.15-1.429-.453-1.973a3.104 3.104 0 0 0-1.225-1.27 3.211 3.211 0 0 0-1.656-.454c-.59 0-1.134.143-1.633.43-.5.288-.908.712-1.226 1.271-.302.544-.453 1.195-.453 1.951s.15 1.422.453 1.997c.318.56.726.99 1.225 1.293a3.171 3.171 0 0 0 1.634.453c.59 0 1.142-.143 1.656-.43a3.3 3.3 0 0 0 1.225-1.271c.303-.56.454-1.225.454-1.997Zm7.912-7.781c-.56 0-1.028-.174-1.406-.522a1.82 1.82 0 0 1-.545-1.338c0-.53.182-.968.545-1.316.378-.363.847-.545 1.406-.545.56 0 1.021.182 1.384.545.378.348.567.786.567 1.316s-.189.975-.567 1.338c-.363.348-.824.522-1.384.522Zm1.566 1.497v12.569h-3.176V14.408h3.176Zm13.914-3.266v2.563h-4.22v13.272h-3.176V13.705h-4.22v-2.563h11.616Zm14 9.278c0 .454-.03.862-.09 1.225h-9.188c.075.908.393 1.619.953 2.133.559.514 1.247.771 2.064.771 1.18 0 2.019-.506 2.518-1.52h3.426c-.363 1.21-1.059 2.208-2.087 2.995-1.029.771-2.292 1.157-3.789 1.157-1.21 0-2.299-.265-3.267-.794a5.847 5.847 0 0 1-2.246-2.292c-.529-.983-.794-2.117-.794-3.403 0-1.3.265-2.442.794-3.425a5.544 5.544 0 0 1 2.224-2.269c.952-.53 2.049-.794 3.289-.794 1.195 0 2.261.257 3.199.771a5.317 5.317 0 0 1 2.2 2.201c.53.938.794 2.02.794 3.244Zm-3.289-.907c-.015-.817-.31-1.467-.885-1.951-.575-.5-1.278-.749-2.11-.749-.786 0-1.452.242-1.996.726-.529.469-.855 1.127-.976 1.974h5.967Zm4.791 1.18c0-1.301.265-2.436.794-3.404a5.577 5.577 0 0 1 2.201-2.268c.937-.545 2.011-.817 3.221-.817 1.558 0 2.843.393 3.857 1.18 1.028.771 1.716 1.86 2.064 3.267h-3.425c-.182-.545-.492-.968-.931-1.27-.423-.318-.952-.477-1.588-.477-.907 0-1.625.333-2.155.998-.529.65-.794 1.58-.794 2.79 0 1.195.265 2.125.794 2.79.53.651 1.248.976 2.155.976 1.286 0 2.125-.574 2.519-1.724h3.425c-.348 1.361-1.036 2.443-2.064 3.244-1.029.802-2.314 1.203-3.857 1.203-1.21 0-2.284-.265-3.221-.794a5.77 5.77 0 0 1-2.201-2.269c-.529-.983-.794-2.125-.794-3.426Zm21.542-6.466c.953 0 1.8.212 2.541.635.741.408 1.316 1.02 1.724 1.838.424.801.635 1.77.635 2.904v7.373h-3.176v-6.942c0-.999-.249-1.762-.748-2.292-.499-.544-1.18-.816-2.042-.816-.877 0-1.573.272-2.087.816-.499.53-.749 1.293-.749 2.292v6.942h-3.176V10.189h3.176v5.785c.408-.545.953-.968 1.633-1.27.681-.318 1.437-.477 2.269-.477Z"/></svg>