<svg xmlns="http://www.w3.org/2000/svg" width="130" height="38" fill="none"><path fill="#fff" fill-rule="evenodd" d="M18.059 29.604V29.5a27.646 27.646 0 0 1 5.589-3.52v.014a26.569 26.569 0 0 1 3.506-1.394c-.2-.933-.35-1.878-.448-2.83H18.06v-5.6l5.589.01v.003h3.175c.124-.932.3-1.856.529-2.768l-.202-.063-.02-.006-.037-.012-.056-.018a27.422 27.422 0 0 1-1.61-.579l-.053-.02-.25-.1c-2.786-1.174-5.141-2.74-7.066-4.698V.203a21.36 21.36 0 0 0 5.589 5.35v.007a21.15 21.15 0 0 0 10.924 3.462v.07c-.182.345-.353.695-.515 1.05l-.024.052-.036.08-.016.038c-.102.228-.2.457-.292.687l-.002.003a21.25 21.25 0 0 0-.722 2.092l-.003.014-.092.33-.008.028-.015.059-.023.086-.01.034-.013.053-.023.086-.01.04-.01.047-.022.087-.02.086-.02.088-.06.262c-.13.592-.235 1.189-.315 1.789h.002a21.38 21.38 0 0 0-.019 5.416l.019.147a21.124 21.124 0 0 0 2.25 7.096v.091a21.138 21.138 0 0 0-10.924 3.463v.007a21.377 21.377 0 0 0-5.59 5.35v-8.149Zm-1.535 0V29.5a27.645 27.645 0 0 0-5.589-3.52v.014A26.57 26.57 0 0 0 7.429 24.6c.2-.933.349-1.878.448-2.83h8.646v-5.6l-5.589.01v.003H7.76c-.125-.932-.3-1.856-.529-2.768l.202-.063.02-.006.037-.012.056-.018a27.53 27.53 0 0 0 1.61-.579l.053-.02.25-.1c2.786-1.174 5.141-2.74 7.066-4.698V.203a21.362 21.362 0 0 1-5.589 5.35v.007A21.151 21.151 0 0 1 .011 9.022v.07c.182.345.353.695.515 1.05l.024.052.036.08.016.038c.102.228.2.457.293.687l.002.003c.277.685.518 1.384.721 2.092l.004.014.092.33.008.028.015.059.023.086.01.034.013.053.022.086.01.04.012.047.022.087.02.086.02.088.06.262c.13.592.235 1.189.315 1.789h-.002a21.371 21.371 0 0 1 .018 5.416l-.018.147a21.122 21.122 0 0 1-2.25 7.096v.091a21.138 21.138 0 0 1 10.924 3.463v.007a21.378 21.378 0 0 1 5.589 5.35v-8.147l-.001-.002Z" clip-rule="evenodd"/><path fill="#fff" d="M57.638 18.855c.893.166 1.626.612 2.2 1.338.576.726.863 1.558.863 2.496 0 .847-.212 1.596-.635 2.246-.409.635-1.006 1.134-1.793 1.497-.786.363-1.716.545-2.79.545h-6.828V11.142h6.533c1.074 0 1.996.173 2.768.521.786.348 1.376.832 1.77 1.452.408.62.612 1.324.612 2.11 0 .923-.25 1.694-.749 2.314-.484.62-1.134 1.059-1.95 1.316Zm-5.807-1.18h2.903c.757 0 1.339-.166 1.747-.499.409-.348.613-.84.613-1.474 0-.636-.204-1.127-.613-1.475-.408-.348-.99-.522-1.747-.522h-2.903v3.97Zm3.198 6.715c.772 0 1.37-.181 1.792-.544.44-.363.659-.877.659-1.543 0-.68-.227-1.21-.681-1.588-.454-.393-1.066-.59-1.838-.59h-3.13v4.265h3.198Zm9.814-11.479c-.56 0-1.029-.174-1.407-.522a1.82 1.82 0 0 1-.544-1.338c0-.53.181-.968.544-1.316.379-.363.847-.545 1.407-.545s1.02.182 1.384.545c.378.348.567.786.567 1.316s-.19.975-.567 1.338c-.363.348-.825.522-1.384.522Zm1.565 1.497v12.569h-3.176V14.408h3.176Zm6.836 2.61v6.08c0 .423.099.733.295.93.212.18.56.272 1.044.272h1.474v2.677h-1.996c-2.677 0-4.016-1.301-4.016-3.902v-6.058h-1.497v-2.609h1.497V11.3h3.2v3.108h2.812v2.61h-2.813Zm22.52-2.61L92.09 26.977h-3.426l-2.291-8.78-2.292 8.78h-3.448l-3.698-12.569h3.222l2.223 9.574 2.405-9.574h3.357l2.36 9.551 2.223-9.55h3.04Zm3.33-1.497c-.56 0-1.028-.174-1.407-.522a1.82 1.82 0 0 1-.544-1.338c0-.53.181-.968.544-1.316.379-.363.847-.545 1.407-.545s1.021.182 1.384.545c.378.348.567.786.567 1.316s-.189.975-.567 1.338c-.363.348-.824.522-1.384.522Zm1.565 1.497v12.569h-3.176V14.408h3.176Zm7.948 12.773c-1.029 0-1.951-.182-2.768-.545-.817-.378-1.467-.884-1.951-1.52a3.863 3.863 0 0 1-.771-2.11h3.199c.06.484.294.885.703 1.203.423.317.945.476 1.565.476.605 0 1.074-.12 1.407-.363.348-.242.521-.552.521-.93 0-.408-.211-.71-.635-.907-.408-.212-1.066-.439-1.973-.68-.938-.228-1.709-.462-2.314-.704a4.108 4.108 0 0 1-1.543-1.112c-.424-.499-.635-1.172-.635-2.019a3.3 3.3 0 0 1 .59-1.906c.408-.574.983-1.028 1.724-1.36.756-.334 1.641-.5 2.654-.5 1.497 0 2.692.378 3.584 1.134.893.742 1.384 1.747 1.475 3.018h-3.04c-.045-.5-.257-.893-.635-1.18-.363-.302-.855-.454-1.475-.454-.575 0-1.021.106-1.338.318a1.019 1.019 0 0 0-.454.885c0 .423.212.748.635.975.424.212 1.082.431 1.974.658.907.227 1.656.461 2.246.703a3.83 3.83 0 0 1 1.52 1.135c.438.499.665 1.164.68 1.996 0 .726-.204 1.376-.612 1.951-.393.575-.968 1.029-1.724 1.361-.741.318-1.611.477-2.609.477Zm19.236-6.76c0 .453-.03.861-.091 1.224h-9.188c.076.908.394 1.619.953 2.133.56.514 1.248.771 2.065.771 1.179 0 2.019-.506 2.518-1.52h3.425c-.363 1.21-1.058 2.208-2.087 2.995-1.028.771-2.291 1.157-3.788 1.157-1.21 0-2.299-.265-3.267-.794a5.84 5.84 0 0 1-2.246-2.292c-.529-.983-.794-2.117-.794-3.403 0-1.3.265-2.442.794-3.425a5.536 5.536 0 0 1 2.223-2.269c.953-.53 2.05-.794 3.29-.794 1.195 0 2.261.257 3.198.771a5.32 5.32 0 0 1 2.201 2.201c.529.938.794 2.02.794 3.244Zm-3.289-.908c-.016-.817-.31-1.467-.885-1.951-.575-.5-1.278-.749-2.11-.749-.787 0-1.452.242-1.996.726-.53.469-.855 1.127-.976 1.974h5.967Z"/></svg>