<svg xmlns="http://www.w3.org/2000/svg" width="76" height="26" fill="none"><path fill="#BABABA" fill-rule="evenodd" d="M22.221 23.114a1.255 1.255 0 0 0 0 1.773l.032.032a1.26 1.26 0 0 0 1.773 0c.33-.33.082-.078.217-.212a1.256 1.256 0 0 0 0-1.773l-.032-.032a1.26 1.26 0 0 0-1.773 0c-.213.213-.018.013-.217.212ZM.647 1.53a1.255 1.255 0 0 0 0 1.773l.032.032a1.26 1.26 0 0 0 1.774 0c.33-.33.082-.078.216-.211a1.256 1.256 0 0 0 0-1.774l-.032-.032a1.26 1.26 0 0 0-1.772 0c-.213.212-.018.012-.217.212H.647Zm4.76 15.238v1.703c0 .905.564 1.648 1.255 1.645h.045c.158.038.326.06.5.06h6.187c.519 0 .984-.186 1.286-.475.176-.06.342-.16.482-.3 3.324-3.322 4.807-4.806 8.13-8.13l.919-.917a1.255 1.255 0 0 0 0-1.774l-.032-.031a1.259 1.259 0 0 0-1.773 0l-.92.919-7.62 7.62c-.484.484-.746.535-1.227.535H9.72l5.806-5.805.036-.034c2.912-2.913 5.035-5.037 8.64-8.641a1.257 1.257 0 0 0 0-1.774l-.032-.032a1.256 1.256 0 0 0-1.773 0L7.962 15.77c0-3.291 0-1.152 0 0v-2.81c0-.81.144-.945.51-1.31 1.704-1.704 2.305-2.372 4.26-4.258l3.314-3.314.919-.919a1.256 1.256 0 0 0 0-1.773l-.033-.032a1.259 1.259 0 0 0-1.772 0l-.92.919-8.335 8.335c-.034.035-.066.07-.096.108-.246.3-.4.726-.4 1.199v4.853h-.001ZM.304 21.873v1.704c0 .905.562 1.647 1.253 1.644h.046c.157.039.325.06.5.06h13.582c.078 0 .154-.005.229-.013.346.022.7-.098.965-.362l.919-.92c4.326-4.327 1.17-1.17 5.498-5.497l.919-.92a1.256 1.256 0 0 0 0-1.773l-.032-.032a1.26 1.26 0 0 0-1.773 0l-.92.92-5.397 5.396c-.399.399-.637.646-1.648.646H4.769c-1.325 0-1.913-.138-1.913-1.829V10.802c0-.604.043-.8.393-1.151l.133-.133 5.442-5.442.919-.919a1.255 1.255 0 0 0 0-1.773l-.033-.032a1.259 1.259 0 0 0-1.772 0l-.919.918-5.441 5.442-.92.92c-.42.421-.355.91-.355 1.446v11.795Z" clip-rule="evenodd"/><path fill="#BABABA" d="m47.449 7.857-2.867 10.26h-2.425l-1.926-7.306-2.014 7.306-2.41.015-2.764-10.275h2.205l1.808 7.967 2.087-7.967h2.294l1.97 7.923 1.822-7.923h2.22Zm.814 6.159c0-.823.162-1.553.486-2.19.333-.637.779-1.127 1.337-1.47a3.599 3.599 0 0 1 1.896-.515c.608 0 1.137.123 1.588.368.46.245.828.553 1.102.926V9.973h2.073v8.144h-2.072v-1.19c-.265.382-.633.7-1.103.955-.46.245-.995.367-1.602.367a3.497 3.497 0 0 1-1.882-.529c-.558-.352-1.004-.847-1.337-1.484-.324-.647-.486-1.387-.486-2.22Zm6.41.03c0-.5-.099-.927-.294-1.28a2.011 2.011 0 0 0-.794-.823 2.08 2.08 0 0 0-1.073-.294c-.383 0-.735.093-1.059.28-.323.186-.588.46-.794.823-.196.352-.294.774-.294 1.264s.098.921.294 1.293c.206.363.47.642.794.838.333.196.686.294 1.059.294.382 0 .74-.093 1.073-.279.333-.196.597-.47.794-.823.196-.363.294-.794.294-1.294Zm7.478 2.175 2.058-6.248h2.19l-3.013 8.144h-2.5l-2.998-8.144h2.205l2.058 6.248Zm12.974-2.352a5 5 0 0 1-.058.794h-5.954c.05.588.255 1.048.618 1.381.362.334.808.5 1.337.5.765 0 1.309-.328 1.632-.985h2.22a3.747 3.747 0 0 1-1.353 1.94c-.666.5-1.484.75-2.455.75-.784 0-1.49-.171-2.116-.514a3.787 3.787 0 0 1-1.456-1.485c-.343-.637-.514-1.372-.514-2.205 0-.842.171-1.582.514-2.22a3.59 3.59 0 0 1 1.44-1.47c.618-.342 1.329-.514 2.132-.514.775 0 1.466.167 2.073.5a3.448 3.448 0 0 1 1.426 1.426c.343.607.514 1.308.514 2.102Zm-2.131-.588c-.01-.53-.2-.95-.573-1.264-.373-.324-.828-.485-1.367-.485-.51 0-.941.156-1.294.47-.343.304-.554.73-.632 1.279h3.866Z"/></svg>