<svg xmlns="http://www.w3.org/2000/svg" width="1440" height="326" fill="none"><path stroke="url(#a)" stroke-linecap="round" stroke-linejoin="round" stroke-miterlimit="10" stroke-opacity=".4" stroke-width=".8" d="M1442.59 3.1 1430.98.73m11.61 2.37h-34.41m34.41 0 12 2.447m-12-2.447h24.37M1430.98.73l4.23.001 4.18.006 4.09.014 3.97.028 3.79.046 3.58.07 3.33.096 3.09.123 2.65.17 2.41.197.66.07V3.1M1430.98.73h-33.86m0 0h-33.85m33.85 0 11.06 2.37M1363.27.73h-33.86m33.86 0 10.5 2.37M1329.41.73h-33.85m33.85 0 9.96 2.37M1295.56.73h-33.86m33.86 0 9.4 2.37M1261.7.73h-33.86m33.86 0 8.85 2.37M1227.84.73h-33.85m33.85 0 8.3 2.37M1193.99.73h-33.86m33.86 0 7.74 2.37m-41.6-2.37h-33.86m33.86 0 7.19 2.37M1126.27.73h-33.85m33.85 0 6.64 2.37M1092.42.73h-33.86m33.86 0 6.08 2.37M1058.56.73h-33.85m33.85 0 5.53 2.37M1024.71.73h-33.86m33.86 0 1.22.586 1.87.886 1.88.898M990.85.73h-33.856m33.856 0 1.092.586 3.331 1.784M956.994.73h-33.856m33.856 0 3.87 2.37M923.138.73h-33.857m33.857 0 1.231.88 1.247.89.418.3.421.3M889.281.73h-33.856m33.856 0 1.026.88.346.295.346.297 1.047.898M855.425.73h-33.856m33.856 0 2.212 2.37M821.569.73l.204.292.205.294 1.039 1.483.211.3M821.569.73h-33.856m0 0h-33.857m33.857 0 1.106 2.37M753.856.73H720m33.856 0 .205.88.348 1.49M720 .73h-33.856M720 .73V3.1M686.144.73h-33.857m33.857 0-.205.88-.348 1.49M652.287.73h-33.856m33.856 0-1.105 2.37M618.431.73l-.204.292-.205.294-1.039 1.483-.211.3M618.431.73h-33.856m0 0h-33.857m33.857 0-1.931 2.07-.281.3M550.718.73h-33.856m33.856 0-1.025.88-.346.295-.694.595-.348.3-.351.3M516.862.73h-33.856m33.856 0-1.231.88-1.247.89-.418.3-.421.3M483.006.73H449.15m33.856 0-3.87 2.37M449.15.73h-33.856m33.856 0-1.092.586-3.331 1.784M415.294.73h-33.856m33.856 0-4.976 2.37M381.438.73h-33.856m33.856 0-5.53 2.37M347.582.73h-33.857m33.857 0-6.083 2.37M313.725.73h-33.856m33.856 0L307.09 3.1M279.869.73h-33.856m33.856 0-7.188 2.37M246.013.73h-33.856m33.856 0-7.741 2.37M212.157.73H178.3m33.857 0-8.295 2.37M178.3.73h-33.856m33.856 0-8.847 2.37M144.444.73h-33.856m33.856 0-9.4 2.37M110.588.73H76.731m33.857 0-9.953 2.37M76.731.73H42.875m33.856 0L66.226 3.1M42.876.73H9.018m33.856 0L31.817 3.1M9.019.73 4.794.731.613.737-3.482.75l-3.965.028-3.794.046-3.582.07-3.326.096-3.088.123-2.649.17-2.412.197-.663.07V3.1M9.019.73-2.592 3.1m68.818 0h34.409m-34.409 0H31.817m34.41 0L55.37 5.547M100.635 3.1 90.352 5.547M100.635 3.1h34.409m68.818 0h34.41m-34.41 0h-34.409m34.409 0-2.115.604-6.454 1.843M238.272 3.1l-7.998 2.447m7.998-2.447h34.409m68.818 0h34.409m-34.409 0H307.09m34.409 0-1.551.604-.781.304-3.952 1.54M375.908 3.1l-.704.301-.706.303-4.302 1.843m5.712-2.447h34.41m68.818 0-.493.301-3.506 2.146m3.999-2.447h34.409m-34.409 0h-34.409m68.818 0-.846.604-.427.304-.427.305-1.728 1.234m3.428-2.447h34.409m68.818 0h34.41m-34.41 0h-34.409m34.409 0-1.713 2.447M651.182 3.1l-.141.301-.141.303-.142.304-.43.92-.289.62m1.143-2.448h34.409m68.818 0h34.41m-34.41 0H720m34.409 0 .571 2.447M788.819 3.1l.14.301.141.303.142.304.719 1.54M788.819 3.1h34.409m68.818 0h34.409m-34.409 0h-34.409m34.409 0 .705.604 1.429 1.224.36.309.362.31M926.455 3.1l.846.604.427.304.427.305 1.728 1.234M926.455 3.1h34.409m68.816 0h34.41m-34.41 0h-34.407m34.407 0 1.27.604.64.304 3.23 1.54m29.27-2.448.71.301.7.303 4.3 1.843m-5.71-2.447h34.41m68.82 0h34.41m-34.41 0h-34.41m34.41 0 1.83.604.93.304 4.67 1.54m26.98-2.448 8 2.447m-8-2.447h34.41m68.82 0h34.41m-34.41 0h-34.41m34.41 0 9.71 2.447m24.7-2.447 10.28 2.447M1339.37 3.1h34.4M-27.082 25.256h.121m34.513 0 13.137-3.127M7.552 25.256l-13.64 3.247m13.64-3.247h39.58m-39.58 0h-34.513m47.65-3.127h-38.85m38.85 0 12.662-3.013m-12.662 3.013h38.85m-77.7 0 13.365-3.013m-13.366 3.013h-8.799m8.8 0-8.8 1.984m47.493-10.71h36.814m-36.814 0 12.012-2.708m-12.012 2.709h-36.814m36.814 0-12.44 2.805m49.254-2.805 11.38-2.71m-11.38 2.71-11.784 2.805m11.784-2.805H94.16m-61.616-2.71h36.182m-36.182 0L44.15 8.079m-11.607 2.617H-3.638m72.364 0h36.182m-36.182 0 10.995-2.617m-107.06 66.535h.378m31.558 0 16.94-5.185m-16.94 5.185-17.782 5.442m17.782-5.442h51.101m-51.1 0h-31.559m48.499-5.185 16.157-4.944m-16.157 4.944h49.89m-49.89 0h-48.499m15.92-4.944h48.736m-48.736 0 16.528-4.721m-16.528 4.72h-15.92m15.92 0-15.92 4.548m48.244-13.78h46.581m-46.58 0 15.113-4.317M21.283 55.25h-46.58m46.58 0L5.487 59.763m62.377-4.512 14.107-4.317M67.864 55.25 53.12 59.763m14.744-4.512h46.582m-78.05-4.317h45.575m-45.574 0H-9.176m45.573 0L50.87 46.8m31.1 4.134L95.479 46.8m-13.508 4.134h45.573m-49.49-11.899h42.796m-42.796 0 12.78-3.65m-12.78 3.65H35.258m42.796 0-13.31 3.802m56.106-3.802 11.928-3.65m-11.928 3.65-12.422 3.802m12.422-3.802h42.797m-72.813-3.65h41.944m-41.944 0H48.89m41.944 0 12.281-3.508m29.663 3.508 11.463-3.508m-11.463 3.508h41.945m-48.43-10.129h39.58m-39.58 0 10.947-3.127m-10.947 3.127h-39.58m39.58 0-11.367 3.247m50.947-3.247 10.218-3.127m-10.218 3.127-10.609 3.247m10.609-3.247h39.581M137.24 22.13h38.851m-38.851 0H98.39m38.85 0 10.552-3.013m28.299 3.013 9.848-3.013m-9.848 3.013h38.851m-47.154-8.725h36.814m-36.814 0 9.483-2.71m-9.483 2.71h-36.813m36.813 0-9.82 2.805m46.634-2.805 8.851-2.71m-8.851 2.71-9.165 2.805m9.165-2.805h36.815m-64.146-2.71h36.182m-36.182 0 9.164-2.616m-9.164 2.617H141.09m72.363 0h36.183m-36.183 0 8.553-2.617M-.781 164.494l23.842-10.216M-.78 164.494l-25.532 10.939M-.78 164.494h72.078m-72.078 0h-26.18m50.022-10.216 22.316-9.561m-22.316 9.561h69.694m-69.694 0H-26.96m49.538-26.957H85.98m-63.403 0 20.374-7.936m-20.374 7.936L.94 135.749m21.638-8.428H-26.96m112.94 0 18.522-7.936m-18.522 7.936-19.671 8.428m19.671-8.428h63.403m-106.43-7.936H104.5m-61.55 0H-18.6m61.55 0 19.218-7.486m42.332 7.486 17.471-7.486m-17.471 7.486h61.55m-68.544-21.25h56.591m-56.591 0 16.283-6.342m-16.283 6.342h-56.59m56.59 0-17.181 6.693m73.772-6.693 14.802-6.342m-14.802 6.342-15.62 6.693m15.62-6.693h56.59m-96.898-6.342h55.11m-55.11 0H58.68m55.11 0 15.452-6.019m39.658 6.02 14.048-6.02m-14.048 6.02h55.109m-66.111-17.181h51.101m-51.101 0 13.311-5.185m-13.311 5.185h-51.1m51.1 0-13.971 5.442m65.072-5.442 12.1-5.185m-12.1 5.185-12.703 5.442m12.703-5.442h51.099m-88.889-5.185h49.89m-49.89 0h-49.89m49.89 0 12.694-4.944m37.196 4.944 11.54-4.944m-11.54 4.944h49.89m-63.381-14.177h46.581m-46.581 0 11.083-4.317m-11.083 4.317h-46.581m46.581 0-11.585 4.512m58.166-4.512 10.076-4.317m-10.076 4.317-10.531 4.512m10.531-4.512h46.581m-82.079-4.317h45.574m-45.574 0h-45.573m45.573 0 10.614-4.134m34.96 4.134 9.649-4.134m-9.649 4.134h45.573M249.24 39.035h42.796m-42.796 0 9.372-3.65m-9.372 3.65h-42.797m42.797 0-9.761 3.802m52.557-3.802 1.084-.464 7.436-3.186m-8.52 3.65-8.873 3.802m8.873-3.802h42.797m-76.221-3.65h41.944m-41.944 0h-41.945m41.945 0 9.006-3.508m32.938 3.508 8.188-3.508m-8.188 3.508h41.945m-57.887-10.129h39.581m-39.581 0 8.029-3.127m-8.029 3.127h-39.58m39.58 0-8.335 3.247m47.916-3.247 7.299-3.127m-7.299 3.127-2.808 1.204-4.77 2.043m7.578-3.247h39.581m-71.133-3.127h38.851m-38.851 0h-38.85m38.85 0 7.738-3.013m31.113 3.013 7.034-3.013m-7.034 3.013h38.85m-55.3-8.725h36.815m-36.815 0 6.955-2.71m-6.955 2.71h-36.813m36.813 0-7.201 2.805m44.016-2.805 4.762-2.04.782-.336.778-.333m-6.322 2.709-6.547 2.805m6.547-2.805h36.814m-66.674-2.71h36.182m-36.182 0 6.719-2.616m-6.719 2.617h-36.182m72.364 0h36.182m-36.182 0 6.108-2.617M25.334 280.86h99.238m-99.238 0 31.248-19.126M25.334 280.86l-34.337 21.017m34.337-21.017h-52.295m151.533 0 26.784-19.126m-26.784 19.126-29.431 21.017m29.431-21.017h99.238M56.582 261.735h94.774m-94.774 0 28.558-17.48m-28.558 17.48h-83.543m178.317 0 24.478-17.48m-24.478 17.48h94.774m-110.666-48.282h83.506m-83.506 0 22.284-13.64m-22.284 13.64H51.959m83.505 0-24.124 14.766m107.63-14.766 19.1-13.64m-19.1 13.64-20.678 14.766m20.678-14.766h83.504m-144.726-13.64h80.322m-80.322 0H77.427m80.321 0 20.648-12.638m59.674 12.638 17.698-12.638m-17.698 12.638h80.322m-102.938-35.319h72.077m-72.077 0 16.689-10.216m-16.689 10.216h-72.079m72.079 0-17.873 10.939m89.95-10.939 14.306-10.216m-14.306 10.216-15.319 10.939m15.319-10.939h72.078m-127.466-10.216h69.694m-69.694 0h-69.694m69.694 0 15.621-9.561m54.073 9.561 13.389-9.561m-13.389 9.561h69.694m-95.346-26.957h63.403m-63.403 0 12.966-7.936m-12.966 7.936h-63.401m63.401 0-13.769 8.428m77.172-8.428 11.113-7.936m-11.113 7.936-11.803 8.428m11.803-8.428h63.402m-113.839-7.936h61.55m-61.55 0h-61.55m61.55 0 12.229-7.486m49.321 7.486 10.482-7.486m-10.482 7.486h61.55m-88.383-21.25h56.591m-56.591 0 10.362-6.342m-10.362 6.342h-56.59m56.59 0-10.934 6.693m67.525-6.693 8.881-6.342m-8.881 6.342-9.372 6.693m9.372-6.693h56.59M334.23 91.793h55.11m-55.11 0h-55.11m55.11 0 9.833-6.019m45.277 6.02 8.428-6.02m-8.428 6.02h55.11m-82.151-17.181h51.1m-51.1 0 8.47-5.185m-8.47 5.185h-51.101m51.101 0-8.891 5.442m59.991-5.442 7.26-5.185m-7.26 5.185-7.621 5.442m7.621-5.442h51.1m-93.73-5.185h49.89m-49.89 0h-49.891m49.891 0 8.078-4.944m41.812 4.944 6.924-4.944m-6.924 4.944h49.89m-76.617-14.177h46.582m-46.582 0 7.053-4.317m-7.053 4.317h-46.581m46.581 0-7.371 4.512m53.953-4.512 6.045-4.317m-6.045 4.317-6.319 4.512m6.319-4.512h46.58m-86.109-4.317h45.574m-45.574 0h-45.574m45.574 0 6.755-4.134m38.819 4.134 5.789-4.134m-5.789 4.134h45.574m-71.708-11.899h42.797m-42.797 0 5.964-3.65m-5.964 3.65h-42.796m42.796 0-6.211 3.802m49.008-3.802-.654.467-4.67 3.335m5.324-3.802 5.111-3.65m-5.111 3.65h42.796m-79.629-3.65h41.944m-41.944 0h-41.944m41.944 0 5.731-3.508m36.213 3.508 4.913-3.508m-4.913 3.508h41.945m-67.341-10.129h39.58m-39.58 0 5.109-3.127m-5.109 3.127h-39.581m39.581 0-5.305 3.247m44.885-3.247 4.379-3.127m-4.379 3.127-1.685 1.204-1.136.811-1.725 1.232m4.546-3.247h39.58m-74.051-3.127h38.85m-38.85 0h-38.851m38.851 0 4.923-3.013m33.927 3.013 1.601-1.143 1.055-.753 1.565-1.117m-4.221 3.013h38.851m-63.445-8.725h36.813m-36.813 0 3.333-2.04 1.092-.67m-4.425 2.71h-36.815m36.815 0-4.002 2.449-.581.356m41.396-2.805 2.858-2.04.468-.336.468-.333m-3.794 2.709-1.947 1.39-1.981 1.415m3.928-2.805h36.814m-69.202-2.71h36.182m-36.182 0 4.276-2.616m-4.276 2.617h-36.182m72.364 0h36.182m-36.182 0 3.665-2.617M422.286 280.86h99.238m-99.238 0 13.392-19.126m-13.392 19.126h-99.237m99.237 0-14.716 21.017m113.954-21.017 8.928-19.126m-8.928 19.126-9.81 21.017m9.81-21.017h99.238m-185.084-19.126h94.774m-94.774 0h-94.774m94.774 0 12.239-17.48m82.535 17.48 8.159-17.48m-8.159 17.48h94.774m-155.741-48.282h83.505m-83.505 0 9.55-13.64m-9.55 13.64h-83.506m83.506 0-10.339 14.766m93.844-14.766 6.367-13.64m-6.367 13.64-6.893 14.766m6.893-14.766h83.505m-157.46-13.64h80.322m-80.322 0h-80.322m80.322 0 8.849-12.638m71.473 12.638 5.899-12.638m-5.899 12.638h80.321m-135.912-35.319h72.078m-72.078 0 7.153-10.216m-7.153 10.216h-72.078m72.078 0-7.66 10.939m79.738-10.939 4.768-10.216m-4.768 10.216-5.106 10.939m5.106-10.939h72.078m-137.003-10.216h69.693m-69.693 0h-69.694m69.694 0 6.694-9.561m62.999 9.561 4.464-9.561m-4.464 9.561h69.694M529.794 127.32h63.402m-63.402 0 5.556-7.936m-5.556 7.936h-63.402m63.402 0-5.902 8.428m69.304-8.428 3.704-7.936m-3.704 7.936-3.934 8.428m3.934-8.428h63.402m-121.248-7.936h61.55m-61.55 0h-61.549m61.549 0 5.242-7.486m56.308 7.486 3.494-7.486m-3.494 7.486h61.55m-108.221-21.25h56.591m-56.591 0 4.441-6.342m-4.441 6.342h-56.59m56.59 0-4.686 6.693m61.277-6.693 2.96-6.342m-2.96 6.342-3.124 6.693m3.124-6.693h56.59m-108.74-6.342h55.11m-55.11 0h-55.11m55.11 0 4.214-6.019m50.896 6.02 2.809-6.02m-2.809 6.02h55.11M566.7 74.612h51.099m-51.099 0 3.629-5.185m-3.629 5.185h-51.1m51.1 0-3.811 5.442m54.91-5.442 2.421-5.185m-2.421 5.185-2.54 5.442m2.54-5.442H668.9m-98.571-5.185h49.891m-49.891 0h-49.89m49.89 0 1.318-1.88 2.145-3.064m46.428 4.944 2.308-4.944m-2.308 4.944h49.89M580.257 55.25h46.581m-46.581 0 3.023-4.317m-3.023 4.317h-46.582m46.582 0-2.356 3.365-.804 1.147m49.741-4.512.766-1.641 1.249-2.676m-2.015 4.317-2.107 4.512m2.107-4.512h46.581m-90.139-4.317.368-.527 2.526-3.607m-2.894 4.134h45.573m-45.573 0h-45.574m91.147 0 .734-1.571.241-.519.241-.515.714-1.53m-1.93 4.135h45.574m-82.816-11.899h42.796m-42.796 0 1.29-1.843.32-.456.316-.453.316-.45.314-.448m-2.556 3.65h-42.797m42.797 0-2.662 3.802m45.458-3.802 1.284-2.752.211-.45.209-.448m-1.704 3.65-1.774 3.802m1.774-3.802h42.797m-83.037-3.65h41.944m-41.944 0h-41.945m41.945 0 1.546-2.209.305-.435.605-.864m39.488 3.508 1.031-2.209.204-.435.201-.433.202-.431m-1.638 3.508h41.945m-76.797-10.129h39.58m-39.58 0 2.189-3.127m-2.189 3.127h-39.581m39.581 0-.561.8-.851 1.215-.862 1.232m41.854-3.247-.186.4-1.137 2.434-.192.413m1.515-3.247 1.46-3.127m-1.46 3.127h39.581m-76.972-3.127h38.851m-38.851 0h-38.85m38.85 0 2.111-3.013m36.74 3.013.534-1.143.176-.378.175-.375.522-1.117m-1.407 3.013h38.85m-71.591-8.725h36.813m-36.813 0 1.429-2.04.467-.67m-1.896 2.71h-36.814m36.814 0-.729 1.04-.244.35-.247.351-.745 1.064m38.778-2.805.162-.344.318-.683.316-.677.469-1.005m-1.265 2.709-.648 1.39-.164.351-.331.708-.165.356m1.308-2.805h36.815m-71.732-2.71h36.182m-36.182 0 1.607-2.294.226-.322m-1.833 2.617h-36.182m72.364 0 .155-.332.155-.33.154-.33.152-.328.455-.975.151-.322m-1.222 2.617h36.182m135.42 270.166h99.238m-99.238 0-4.464-19.126m4.464 19.126H720m99.238 0 4.905 21.017m94.333-21.017-8.928-19.126m8.928 19.126 9.81 21.017m-9.81-21.017h99.234m-202.936-19.126h94.774m-94.774 0H720m94.774 0-4.08-17.48m98.854 17.48-8.159-17.48m8.159 17.48h94.772m-200.815-48.282h83.505m-83.505 0-3.183-13.64m3.183 13.64H720m83.505 0 3.447 14.766m80.058-14.766-6.367-13.64m6.367 13.64 6.893 14.766m-6.893-14.766h83.505m-170.193-13.64h80.321m-80.321 0H720m80.322 0-2.95-12.638m83.271 12.638-5.899-12.638m5.899 12.638h80.322m-168.887-35.319h72.078m-72.078 0-2.384-10.216m2.384 10.216H720m72.078 0 2.553 10.939m69.525-10.939-4.768-10.216m4.768 10.216 5.106 10.939m-5.106-10.939h72.078m-146.54-10.216h69.694m-69.694 0H720m69.694 0-2.232-9.561m71.926 9.561-4.464-9.561m4.464 9.561h69.693M783.402 127.32h63.402m-63.402 0-1.852-7.936m1.852 7.936H720m63.402 0 1.967 8.428m61.435-8.428-3.704-7.936m3.704 7.936 3.934 8.428m-3.934-8.428h63.402m-128.656-7.936h61.55m-61.55 0H720m61.55 0-1.747-7.486m63.297 7.486-3.494-7.486m3.494 7.486h61.55m-128.06-21.25h56.59m-56.59 0-1.48-6.342m1.48 6.342H720m56.59 0 1.562 6.693m55.028-6.693-2.96-6.342m2.96 6.342 3.124 6.693m-3.124-6.693h56.591M775.11 91.793h55.11m-55.11 0H720m55.11 0-1.405-6.019m56.515 6.02-2.809-6.02m2.809 6.02h55.11M771.1 74.612h51.101m-51.101 0-1.21-5.185m1.21 5.185H720m51.1 0 1.271 5.442m49.83-5.442-2.421-5.185m2.421 5.185 2.54 5.442m-2.54-5.442H873.3m-103.41-5.185h49.89m-49.89 0H720m49.89 0-1.154-4.944m51.044 4.944-2.308-4.944m2.308 4.944h49.891M766.581 55.25h46.581m-46.581 0-1.008-4.317m1.008 4.317H720m46.581 0 1.053 4.512m45.528-4.512-1.768-3.788-.247-.53m2.015 4.318 2.107 4.512m-2.107-4.512h46.581m-94.17-4.317-.122-.527-.843-3.607m.965 4.134h45.574m-45.574 0H720m91.147 0-.734-1.571-.241-.519-.241-.515-.714-1.53m1.93 4.135h45.573m-93.924-11.899h42.797m-42.797 0-.852-3.65m.852 3.65H720m42.796 0 .329 1.407.111.474.11.477.224.96.114.484m41.909-3.802-1.284-2.752-.421-.898m1.705 3.65 1.774 3.802m-1.774-3.802h42.796m-86.445-3.65h41.944m-41.944 0H720m41.944 0-.818-3.508m42.762 3.508-1.03-2.209-.204-.435-.201-.433-.202-.431m1.637 3.508h41.945M759.58 25.256h39.581m-39.581 0-.729-3.127m.729 3.127H720m39.58 0 .758 3.247m38.823-3.247.186.4 1.137 2.434.192.413m-1.515-3.247-1.46-3.127m1.46 3.127h39.58m-79.89-3.127h38.85m-38.85 0H720m38.851 0-.704-3.013m39.554 3.013-.534-1.143-.176-.378-.175-.375-.522-1.117m1.407 3.013h38.851m-79.738-8.725h36.815m-36.815 0-.632-2.71m.632 2.71H720m36.814 0 .655 2.805m36.16-2.805-.161-.344-.32-.683-.157-.34-.316-.673-.155-.336-.157-.333m1.266 2.709.649 1.39.163.351.331.708.165.356m-1.308-2.805h36.813m-74.26-2.71-.077-.331-.078-.33-.076-.33-.38-1.625m.611 2.617h36.181m-36.181 0H720m72.363 0h36.183m-36.183 0-.309-.663-.154-.329-.152-.328-.455-.975-.151-.322M1216.19 280.86h99.24m-99.24 0-22.32-19.126m22.32 19.126h-99.24m99.24 0 24.53 21.017m74.71-21.017-26.79-19.126m26.79 19.126 29.43 21.017m-29.43-21.017h99.24m-220.8-19.126h94.77m-94.77 0h-94.77m94.77 0-20.4-17.48m115.17 17.48-24.47-17.48m24.47 17.48h94.78m-245.89-48.282h83.5m-83.5 0-15.92-13.64m15.92 13.64h-83.51m83.51 0 17.23 14.766m66.27-14.766-19.1-13.64m19.1 13.64 20.68 14.766m-20.68-14.766h83.51m-182.93-13.64h80.32m-80.32 0h-80.32m80.32 0-14.75-12.638m95.07 12.638-17.7-12.638m17.7 12.638h80.32m-201.86-35.319h72.08m-72.08 0-11.92-10.216m11.92 10.216h-72.08m72.08 0 12.77 10.939m59.31-10.939-14.31-10.216m14.31 10.216 15.32 10.939m-15.32-10.939h72.08m-156.08-10.216h69.69m-69.69 0h-69.695m69.695 0-11.16-9.561m80.85 9.561-13.39-9.561m13.39 9.561h69.7m-170.85-26.957h63.4m-63.4 0-9.26-7.936m9.26 7.936h-63.402m63.402 0 9.84 8.428m53.56-8.428-11.11-7.936m11.11 7.936 11.81 8.428m-11.81-8.428h63.4m-136.06-7.936h61.55m-61.55 0h-61.551m61.551 0-8.74-7.486m70.29 7.486-10.48-7.486m10.48 7.486h61.55m-147.9-21.25h56.59m-56.59 0-7.4-6.342m7.4 6.342h-56.589m56.589 0 7.81 6.693m48.78-6.693-8.88-6.342m8.88 6.342 9.37 6.693m-9.37-6.693h56.59m-120.58-6.342h55.11m-55.11 0h-55.11m55.11 0-7.024-6.019m62.134 6.02-8.43-6.02m8.43 6.02h55.11M975.501 74.612h51.099m-51.099 0-6.05-5.185m6.05 5.185H924.4m51.101 0 6.351 5.442m44.748-5.442-7.26-5.185m7.26 5.185 7.62 5.442m-7.62-5.442h51.1m-108.249-5.185h49.889m-49.889 0h-49.89m49.89 0-5.771-4.944m55.66 4.944-6.92-4.944m6.92 4.944h49.89M952.906 55.251l.645.553.649.556 3.971 3.403m-5.265-4.512h46.58m-46.58 0-5.039-4.317m5.039 4.317h-46.581m93.161 0-6.045-4.317m6.045 4.317 6.324 4.512m-6.324-4.512h46.584m-98.203-4.317h45.574m-45.574 0h-45.573m45.573 0-4.824-4.134m50.398 4.134-5.789-4.134m5.789 4.134h45.569M933.982 39.035h42.797m-42.797 0-4.26-3.65m4.26 3.65h-42.796m42.796 0 4.436 3.802m38.361-3.802-3.22-2.298-1.892-1.352m5.112 3.65 5.323 3.802m-5.323-3.802h42.791m-89.848-3.65h41.945m-41.945 0h-41.944m41.944 0-3.59-3.077-.504-.431m46.039 3.508-4.913-3.508m4.913 3.508h41.943m-95.707-10.129h39.58m-39.58 0-.926-.793-2.724-2.334m3.65 3.127h-39.581m39.581 0 .933.8 1.895 1.624.96.823m35.792-3.247-4.379-3.127m4.379 3.127 1.685 1.204 1.136.811 1.725 1.232m-4.546-3.247h39.58m-82.81-3.127h38.851m-38.851 0h-38.851m38.851 0-2.65-2.27-.867-.743m42.368 3.013-1.601-1.143-1.055-.753-1.565-1.117m4.221 3.013h38.85m-87.883-8.725h36.814m-36.814 0-1.989-1.704-1.173-1.005m3.162 2.709h-36.815m36.815 0 3.273 2.805m33.541-2.805-2.858-2.04-.468-.336-.468-.333m3.794 2.709 1.947 1.39 1.981 1.415m-3.928-2.805h36.813m-76.789-2.71h36.182m-36.182 0-1.54-1.319-.76-.651-.378-.324-.376-.322m3.054 2.617h-36.181m72.363 0h36.182m-36.182 0-3.665-2.617m509.464 191.735h-80.32m80.32 0-26.54-12.638m26.54 12.638h24.07m-24.07 0 24.07 11.457m-98.26-46.776h72.08m-72.08 0-21.46-10.216m21.46 10.216h-72.07m72.07 0 22.98 10.939m49.1-10.939-23.84-10.216m23.84 10.216 25.53 10.939m-25.53-10.939h26.18m-119.72-10.216h69.7m-69.7 0h-69.69m69.69 0-20.08-9.561m89.78 9.561-22.32-9.561m22.32 9.561h50.02m-176.34-26.957h63.4m-63.4 0-16.67-7.936m16.67 7.936h-63.4m63.4 0 17.7 8.428m45.7-8.428-18.52-7.936m18.52 7.936 19.67 8.428m-19.67-8.428h63.4m-143.47-7.936h61.55m-61.55 0h-61.55m61.55 0-15.72-7.486m77.27 7.486-17.47-7.486m17.47 7.486h61.55m-167.74-21.25h56.59m-56.59 0-13.32-6.342m13.32 6.342h-56.59m56.59 0 14.06 6.693m42.53-6.693-14.8-6.342m14.8 6.342 15.62 6.693m-15.62-6.693h56.59m-126.5-6.342h55.11m-55.11 0h-55.11m55.11 0-12.64-6.019m67.75 6.02-14.05-6.02m14.05 6.02h55.11M1179.9 74.612h51.1m-51.1 0-10.89-5.185m10.89 5.185h-51.1m51.1 0 11.43 5.442m39.67-5.442-12.1-5.185m12.1 5.185 12.7 5.442m-12.7-5.442h51.1m-113.09-5.185h49.89m-49.89 0h-49.89m49.89 0-10.39-4.944m60.28 4.944-11.54-4.944m11.54 4.944h49.89M1139.23 55.25h46.58m-46.58 0-9.07-4.317m9.07 4.317h-46.58m46.58 0 9.48 4.512m37.1-4.512-10.08-4.317m10.08 4.317 10.53 4.512m-10.53-4.512h46.58m-102.23-4.317h45.57m-45.57 0h-45.57m45.57 0-8.68-4.134m54.25 4.134-9.64-4.134m9.64 4.134h45.58m-116.14-11.899h42.79m-42.79 0-7.67-3.65m7.67 3.65h-42.8m42.8 0 7.98 3.802m34.81-3.802-8.52-3.65m8.52 3.65 8.88 3.802m-8.88-3.802h42.8m-93.26-3.65h41.94m-41.94 0h-41.94m41.94 0-7.37-3.508m49.31 3.508-8.18-3.508m8.18 3.508h41.95m-105.17-10.129h39.58m-39.58 0-6.56-3.127m6.56 3.127h-39.58m39.58 0 1.69.8.84.404 4.29 2.043m32.76-3.247-7.29-3.127m7.29 3.127 7.58 3.247m-7.58-3.247h39.58m-85.72-3.127h38.85m-38.85 0h-38.86m38.86 0-6.33-3.013m45.18 3.013-7.04-3.013m7.04 3.013h38.85m-96.03-8.725h36.81m-36.81 0-5.69-2.71m5.69 2.71h-36.82m36.82 0 5.89 2.805m30.92-2.805-4.76-2.04-.78-.336-.78-.333m6.32 2.709 6.55 2.805m-6.55-2.805h36.81m-79.31-2.71h36.18m-36.18 0-4.82-2.294-.68-.322m5.5 2.617h-36.18m72.36 0H1118m-36.18 0-6.11-2.617m379.96 90.057-19.24-6.342m19.24 6.342h-56.59m56.59 0 11.29 3.72m-11.29-3.72h11.29m-30.53-6.342h-55.11m55.11 0-18.26-6.019m18.26 6.02h30.53m-82.66-17.181h51.1m-51.1 0-15.73-5.185m15.73 5.185h-51.1m51.1 0 16.51 5.442m34.59-5.442-16.94-5.185m16.94 5.185 17.79 5.442m-17.79-5.442h31.56m-98.39-5.185h49.89m-49.89 0h-49.89m49.89 0-15-4.944m64.89 4.944-16.15-4.944m16.15 4.944h48.5M1325.55 55.25h46.59m-46.59 0-13.09-4.317m13.09 4.317h-46.58m46.58 0 13.7 4.512m32.89-4.512-14.11-4.317m14.11 4.317 14.74 4.512m-14.74-4.512h46.58m-106.26-4.317h45.57m-45.57 0h-45.58m45.58 0-12.55-4.134m58.12 4.134-13.51-4.134m13.51 4.134h45.57m-127.25-11.899h42.8m-42.8 0-11.07-3.65m11.07 3.65h-42.79m42.79 0 11.54 3.802m31.26-3.802-11.93-3.65m11.93 3.65 12.42 3.802m-12.42-3.802h42.8m-96.67-3.65h41.94m-41.94 0h-41.95m41.95 0-10.65-3.508m52.59 3.508-11.46-3.508m11.46 3.508h41.95m-114.62-10.129h39.58m-39.58 0-9.49-3.127m9.49 3.127h-39.58m39.58 0 9.85 3.247m29.73-3.247-10.22-3.127m10.22 3.127 10.61 3.247m-10.61-3.247h39.58m-88.65-3.127h38.85m-38.85 0h-38.85m38.85 0-9.15-3.013m48 3.013-9.85-3.013m9.85 3.013h38.85m-104.18-8.725h36.82m-36.82 0-8.22-2.71m8.22 2.71h-36.81m36.81 0 8.51 2.805m28.31-2.805-8.85-2.71m8.85 2.71 9.16 2.805m-9.16-2.805h36.81m-81.85-2.71h36.19m-36.19 0-7.94-2.616m7.94 2.617h-36.18m72.37 0h36.18m-36.18 0-8.56-2.617m229.55 30.957-14.49-3.65m14.49 3.65h-42.8m42.8 0 15.08 3.802m-15.08-3.802h19.42m-33.91-3.65h-41.94m41.94 0-13.91-3.508m13.91 3.508h33.91m-74.09-10.129h39.58m-39.58 0-12.41-3.127m12.41 3.127h-39.58m39.58 0 12.88 3.247m26.7-3.247-13.14-3.127m13.14 3.127 13.64 3.247m-13.64-3.247h34.51m-86.5-3.127h38.85m-38.85 0h-38.85m38.85 0-11.96-3.013m50.81 3.013-12.66-3.013m12.66 3.013h38.85m-112.32-8.725h36.81m-36.81 0-10.75-2.71m10.75 2.71h-36.81m36.81 0 11.13 2.805m25.68-2.805-11.38-2.71m11.38 2.71 11.79 2.805m-11.79-2.805h36.82m-84.38-2.71h36.18m-36.18 0-10.38-2.616m10.38 2.617h-36.18m72.36 0h36.19m-36.19 0-10.99-2.617m34.16 8.13 12.21 2.908m-12.21-2.907h37.47m-37.47 0h-37.47m62.5-2.805-12.01-2.71m12.01 2.71 12.44 2.805m-12.44-2.805h36.81m-48.82-2.71h36.18m-36.18 0-11.61-2.616m-35.57 0h-35.57m35.57 0h35.57m-35.57 0-10.63-2.53m82.26 10.66 12.89 2.908m-12.89-2.907h35.05m-10.68-2.805-12.64-2.71m12.64 2.71 10.68 2.287m-10.68-2.287h10.68m-23.32-2.71-12.22-2.616m12.22 2.617h23.32m-71.11-2.617h35.57m-35.57 0-11.22-2.53m46.79 2.53-11.81-2.53m11.81 2.53h35.54m-60.31 11.038h38.15m-38.15 0h-38.15m89.66 3.013-13.36-3.013m13.36 3.013 8.8 1.984m-8.8-1.984h8.8m-22.16-3.013h22.16m-98.46 0h-38.14m38.14 0-11.53-2.907m0 0h-37.47m126.59 12.294 14.17 3.374m-14.17-3.374h-40.34m40.34 0h20.87m.12-3.247h-.12m-6.7 6.62h-41.12m41.12 0 6.7 1.595m-6.7-1.594h6.7m-47.82 0h-41.13m41.13 0-13.39-3.374m0 0h-40.34m-120.85-12.294 9.5 2.907m-9.5-2.907h37.47m-37.47 0h-37.47m65.12-2.805-9.48-2.71m9.48 2.71 9.82 2.805m-9.82-2.805h36.82m-46.3-2.71h36.18m-36.18 0-9.16-2.616m-35.58 0h35.58m-35.58 0-8.26-2.53m8.26 2.53h-35.57m99.61 8.13 10.18 2.908m-10.18-2.907h37.47m-10.47-2.805-10.12-2.71m10.12 2.71 10.47 2.805m-20.59-5.514-9.77-2.617m-35.57 0h35.57m-35.57 0-8.86-2.53m74.79 10.66 10.86 2.908m-5.65-11.038h-35.57m35.57 0-10.04-2.53m-25.53 2.53-9.45-2.53m-25.63 13.568h38.15m-38.15 0h-38.15m86.85 3.013-10.55-3.013m10.55 3.013 10.95 3.127m-10.95-3.127h38.85m-49.4-3.013h38.15m-114.45 0h-38.14m38.14 0-8.82-2.907m123.27 2.907 11.25 3.013m-134.52-5.92h-37.46m144.08 9.047 11.36 3.247m-11.36-3.247h39.58m-11.68-3.127 11.68 3.127m0 0 12.12 3.247m-80.67 0 11.02 3.374m-11.02-3.374h40.33m-40.33 0h-40.34m80.67 0 11.81 3.374m-11.81-3.374h40.34m0 0 12.6 3.374m-82.25 0h41.12m-41.12 0h-41.13m94.54 3.508-12.29-3.508m12.29 3.508 12.78 3.65m-12.78-3.65h41.94m-54.23-3.508h41.13m-123.38 0h-41.12m41.12 0-10.23-3.374m133.61 3.374 13.1 3.508m-146.71-6.882h-40.34m157.89 10.532 13.31 3.802m-13.31-3.802h42.79m-13.63-3.65 13.63 3.65m0 0 14.2 3.802m-87.37 0 12.95 3.963m-12.95-3.963h43.69m-43.69 0h-43.68m87.37 0 13.87 3.963m-13.87-3.963h43.68m0 0 14.8 3.963m-14.8-3.963h43.68m0 0h4.34m-4.34 0 4.34 1.093m-122.44 2.87h44.61m-44.61 0h-44.61m103.69 4.134-14.47-4.134m14.47 4.134 15.12 4.317m-15.12-4.317h45.58m-60.05-4.134h44.61m-133.83 0h-44.61m44.61 0-12.02-3.963m145.85 3.963 15.44 4.134m-15.44-4.134h33.22m-179.07-3.963h-43.69m174.52 12.414 15.79 4.512m-15.79-4.512h46.58m-16.12-4.317 16.12 4.317m-16.12-4.317h17.78m.23-4.134h-.23m-1.66 8.45 1.66.446m-1.66-.445h1.66m-80.08 4.512 15.43 4.72m-15.43-4.72h47.63m-47.63 0h-47.63m95.26 0 16.53 4.72m-16.53-4.72h32.45m.4-3.96-.4-.107m-64.65 8.788h48.73m-48.73 0h-48.74m97.47 0h15.92m-15.92 0 15.92 4.547m-113.39-4.547h-48.74m48.74 0-14.32-4.721m0 0h-47.64m161.58 20.292h-52.38m52.38 0 13.77 4.216m-13.77-4.216h13.77m.38-5.442h-.38m-66.15 5.442h-52.37m52.37 0 17.36 5.72m48.94-1.458-.15-.046m-372.27-68.062 6.78 2.907m-6.78-2.907h37.47m-37.47 0h-37.47m67.73-2.805-6.95-2.71m6.95 2.71 7.21 2.805m-7.21-2.805h36.82m-43.77-2.71h36.18m-36.18 0-6.72-2.616m-35.57 0h35.57m-35.57 0-2.24-.959-3.67-1.572m5.91 2.53h-35.57m92.02 8.132 7.46 2.907m-7.46-2.907h37.47m-7.86-2.805-7.59-2.71m7.59 2.71 7.86 2.805m-15.45-5.514-7.33-2.617m-35.57 0h35.57m-35.57 0-6.49-2.53m64.84 10.66 8.14 2.908m4.65-11.038-7.67-2.53m7.67 2.53h-35.57m0 0-.9-.322-1.78-.637-4.4-1.572m-38.3 13.569h38.15m-38.15 0h-38.14m84.03 3.013-7.74-3.013m7.74 3.013 8.02 3.127m-8.02-3.127h38.85m-46.59-3.013h38.15m-114.44 0h-38.15m38.15 0-6.11-2.907m120.55 2.907 8.44 3.013m-128.99-5.92h-37.47m135.63 9.047 8.34 3.247m-8.34-3.247h39.59m-8.76-3.127 1.07.385 7.69 2.742m0 0 9.09 3.247m-80.68 0 .97.415 6.91 2.959m-7.88-3.374h40.34m-40.34 0h-40.34m80.68 0 8.66 3.374m-8.66-3.374h40.34m0 0 9.45 3.374m-82.25 0h41.12m-41.12 0h-41.13m91.26 3.508-9.01-3.508m9.01 3.508 9.37 3.65m-9.37-3.65h41.94m-50.95-3.508h41.13m-123.38 0h-41.12m41.12 0-7.09-3.374m130.47 3.374 9.82 3.508m-140.29-6.882h-40.33m148.05 10.532 9.76 3.802m-9.76-3.802h42.8m-10.23-3.65 10.23 3.65m0 0 10.64 3.802m-87.36 0 9.25 3.963m-9.25-3.963h43.68m-43.68 0h-43.69m87.37 0 10.18 3.963m-10.18-3.963h43.68m0 0 11.1 3.963m-89.21 0h44.61m-44.61 0h-44.61m99.83 4.134L1210.7 46.8m10.61 4.134 11.08 4.317m-11.08-4.317h45.57M1210.7 46.8h44.6m-133.82 0h-44.61m44.61 0-8.33-3.963M1255.3 46.8l11.58 4.134m-153.73-8.097h-43.68m162.92 12.414 11.59 4.512m-11.59-4.512h46.58m-12.09-4.317 12.09 4.317m0 0 12.64 4.512m-95.27 0 11.02 4.72m-11.02-4.72h47.64m-47.64 0h-47.63m95.27 0 12.12 4.72m-12.12-4.72h47.63m0 0 13.22 4.72m-97.47 0h48.74m-48.74 0h-48.74m110.17 4.945-12.69-4.944m12.69 4.944 13.31 5.185m-13.31-5.185h49.89m-62.58-4.944h48.73m-146.21 0h-48.73m48.73 0-9.91-4.721m156.12 4.72 13.85 4.945m-169.97-9.665h-47.64m181.03 14.85 13.97 5.442m-13.97-5.442h51.1m-14.52-5.185 14.52 5.185m0 0 15.24 5.442m-104.74 0 13.35 5.72m-13.35-5.72h52.37m-52.37 0h-52.37m104.74 0 14.69 5.72m-14.69-5.72h52.37m0 0 16.02 5.72m-107.41 0h53.71m-53.71 0h-53.7m122.86 6.018-15.45-6.019m15.45 6.02 16.28 6.341m-16.28-6.342h55.11m-70.56-6.019h53.7m-161.11 0h-53.71m53.71 0-12.02-5.719m173.13 5.72 16.86 6.018m-16.86-6.019h53.71m-226.84-5.719h-52.37m203.53 18.08 17.18 6.693m-17.18-6.693h56.59m-17.76-6.342 17.76 6.342m19.09-12.36h48.79m-67.88 12.36 18.75 6.693m-116.31 0 16.51 7.071m-16.51-7.071h58.15m-58.15 0h-58.15m116.3 0 18.16 7.071m-18.16-7.071h58.16m0 0 19.8 7.071m-19.8-7.071h49.13m-148.93 7.071h59.8m-59.8 0h-59.8m138.82 7.486-19.22-7.486m19.22 7.486 20.37 7.936m-20.37-7.936h61.55m-80.77-7.486h59.8m-179.4 0h-59.81m59.81 0-14.86-7.071m194.26 7.071 20.97 7.486m-20.97-7.486h29.33m-223.59-7.071h-58.15m232.2 22.493 21.64 8.428m-21.64-8.428h49.54m-8.36-7.936h8.36m-8.36 0 8.36 2.986m-93.27 13.378 20.93 8.968m-20.93-8.968h65.37m-65.37 0h-65.37m130.74 0 23.02 8.968m-23.02-8.968h27.9m-72.34 8.968h67.46m-67.46 0h-67.46m134.92 0 4.88 1.899m-4.88-1.899h4.88m-139.8 0h-67.46m67.46 0-18.84-8.968m0 0h-65.37m223.36 39.684h-74.63m74.63 0h.65m-.65 0 .65.277m-75.28-.277h-74.63m74.63 0 24.67 11.742M944.813 16.209l1.509 1.077.507.363 2.054 1.467m-4.07-2.907h37.468m-37.468 0h-37.469m70.354-2.805-3.333-2.04-1.092-.67m4.425 2.71 4.002 2.449.581.356m-4.583-2.805h36.812m-41.237-2.71h36.187m-36.187 0-4.276-2.616m-35.571 0h35.571m-35.571 0-1.343-.959-2.2-1.572m3.543 2.53h-35.571m84.426 8.132 1.172.716 3.578 2.19m-4.75-2.906h37.469m-5.24-2.805-5.05-2.71m5.05 2.71 5.24 2.805m-10.29-5.514-3.69-1.971-1.2-.646m-35.573 0h35.573m-35.573 0-4.134-2.53m54.887 10.66 5.43 2.908m14.96-11.038-.67-.322-4.65-2.209m5.32 2.53h-35.57m0 0-1.79-.958-2.937-1.572m-50.96 13.569h38.148m-38.148 0h-38.147m81.218 3.013-4.923-3.013m4.923 3.013 5.109 3.127m-5.109-3.127h38.846m-43.769-3.013h38.149m-114.444 0h-38.147m38.147 0-3.392-2.907m117.836 2.907 5.62 3.013m-123.456-5.92h-37.469m127.188 9.047 3.287 2.015.67.409 1.35.823m-5.307-3.247h39.577m-5.84-3.127 5.84 3.127m0 0 6.07 3.247m-80.681 0 4.725 3.374m-4.725-3.374h40.341m-40.341 0h-40.338m80.679 0 5.51 3.374m-5.51-3.374h40.34m0 0 6.3 3.374m-82.256 0h41.126m-41.126 0h-41.126m87.982 3.508-3.61-2.209-.71-.435-1.41-.864m5.73 3.508 5.96 3.65m-5.96-3.65h41.95m-47.68-3.508h41.13m-123.382 0h-41.125m41.125 0-3.937-3.374m127.319 3.374 6.55 3.508m-133.869-6.882h-40.338m138.217 10.532 6.22 3.802m-6.22-3.802h42.8m-6.81-3.65 6.81 3.65m0 0 7.1 3.802m-87.368 0 2.746 1.96.695.497 2.109 1.506m-5.55-3.963h43.688m-43.688 0h-43.684m87.372 0 6.47 3.963m-6.47-3.963h43.68m0 0 7.4 3.963m-89.218 0h44.608m-44.608 0h-44.609m95.967 4.134-6.75-4.134m6.75 4.134 7.06 4.317m-7.06-4.317h45.58m-52.33-4.134h44.61m-133.827 0h-44.609m44.609 0-1.175-1.007-3.45-2.956M1076.87 46.8l7.72 4.134m-146.172-8.097h-43.683M1046.07 55.25l7.37 4.512m-7.37-4.512h46.58m-8.06-4.317 8.06 4.317m0 0 8.42 4.512m-95.26 0 6.61 4.72m-6.61-4.72h47.63m-47.63 0h-47.639m95.269 0 7.71 4.72m-7.71-4.72h47.63m0 0 8.82 4.72m-97.47 0h48.73m-48.73 0h-48.74m105.55 4.945-8.08-4.944m8.08 4.944 8.47 5.185m-8.47-5.185h49.89m-57.97-4.944h48.74m-146.21 0h-48.736m48.736 0-5.509-4.721m151.719 4.72 9.23 4.945m-160.949-9.665h-47.634m167.163 14.85 8.89 5.442m-8.89-5.442h51.1m-9.68-5.185 9.68 5.185m0 0 10.16 5.442m-104.74 0 8.01 5.72m-8.01-5.72h52.37m-52.37 0h-52.368m104.738 0 9.35 5.72m-9.35-5.72h52.37m0 0 10.68 5.72m-107.41 0h53.71m-53.71 0h-53.704m117.244 6.018-9.83-6.019m9.83 6.02 10.36 6.341m-10.36-6.342h55.11m-64.94-6.019h53.7m-161.114 0h-53.705m53.705 0-6.674-5.719m167.788 5.72 11.24 6.018M981.852 80.055h-52.371m186.649 18.08 10.94 6.693m-10.94-6.693h56.59m-11.84-6.342 11.84 6.342m0 0 12.5 6.693m-116.31 0 9.91 7.071m-9.91-7.071h58.16m-58.16 0h-58.15m116.31 0 11.55 7.071m-11.55-7.071h58.15m0 0 13.2 7.071m-119.6 0h59.8m-59.8 0h-59.81m131.84 7.486-12.23-7.486m12.23 7.486 12.96 7.936m-12.96-7.936h61.55m-73.78-7.486h59.8m-179.41 0h-59.799m59.799 0-8.25-7.071m187.66 7.071 13.98 7.486m-201.64-14.557h-58.151m211.201 22.493 13.77 8.428m-13.77-8.428h63.41m-14.82-7.936 14.82 7.936m0 0 15.73 8.428m-130.73 0 12.55 8.968m-12.55-8.968h65.36m-65.36 0h-65.37m130.73 0 14.66 8.968m-14.66-8.968h65.37m0 0 16.75 8.968m-134.93 0h67.47m-67.47 0h-67.46m150.55 9.561-15.62-9.561m15.62 9.561 16.69 10.216m-16.69-10.216h69.69m-85.31-9.561h67.46m-202.39 0h-67.461m67.461 0-10.46-8.968m212.85 8.968 17.85 9.561m-230.7-18.529h-65.373m243.073 28.745 17.87 10.939m-17.87-10.939h72.08m-19.08-10.216 19.08 10.216m0 0 20.42 10.939m-149.26 0 16.44 11.742m-16.44-11.742h74.63m-74.63 0h-74.63m149.26 0 19.18 11.742m-19.18-11.742h74.63m0 0 21.93 11.742m-154.75 0h77.37m-77.37 0h-77.37m175.39 12.638-20.65-12.638m20.65 12.638 22.29 13.64m-22.29-13.64h80.32m-100.97-12.638h77.38m-232.12 0h-77.37m77.37 0-13.7-11.742m245.82 11.742 23.59 12.638m-23.59-12.638h77.37m-323.19-11.742h-74.63m286.01 38.02 24.12 14.766m-24.12-14.766h83.5m-25.47-13.64 25.47 13.64m28.31-26.278h50.61m-78.92 26.278 27.57 14.766m-27.57-14.766h78.92m-225.25 14.766 22.46 16.036m-22.46-16.036h86.95m-86.95 0h-86.95m173.9 0 26.2 16.036m-26.2-16.036h86.95m0 0 29.94 16.036m-29.94-16.036h51.35m-202.79 16.036h90.69m-90.69 0h-90.7m209.95 17.48-28.56-17.48m28.56 17.48 31.25 19.126m-31.25-19.126h83.54m-112.1-17.48h90.69m-272.08 0h-90.69m90.69 0-18.71-16.036m290.79 16.036h21.41m-21.41 0 21.41 11.465m-312.2-27.501h-86.95m346.86 52.642 34.33 21.017m-34.33-21.017h52.29m-122.1 21.017 32.49 23.203m-32.49-23.203H1449m-104.14 0h-104.14m208.28 0 17.96 10.992M1449 301.878h17.96m-89.61 23.203h-109.56m109.56 0 89.61-.001m-199.17.001h-109.55m109.55 0-27.07-23.203m0 0h-104.15M794.937 16.208l.168.359.167.358.169.361.169.363.512 1.097.172.37m-1.357-2.907h37.47m-37.47 0h-37.468m72.973-2.805-1.429-2.04-.467-.67m1.896 2.71 1.22 1.741.745 1.064m-1.965-2.805h36.814m-38.71-2.71h36.182m-36.182 0-1.38-1.97-.453-.646m-35.571 0-.15-.322-.592-1.27-.439-.939m1.181 2.53h35.571m-35.571 0h-35.571m76.836 8.132.249.358.253.358.252.361.254.363 1.026 1.467m-2.034-2.907h37.468m-2.619-2.805-1.904-2.04-.624-.67m2.528 2.71 2.619 2.805m-5.147-5.514-1.233-1.32-.91-.975-.301-.322m-35.571 0-.224-.322-.447-.637-.444-.633-.219-.314-.438-.625m1.772 2.53h35.571m7.591 8.132 2.026 2.17.688.737m25.266-11.038-2.223-1.906-.73-.625m2.953 2.53h-35.571m0 0-2.071-2.218-.292-.312m-63.627 13.569h38.147m-38.147 0h-38.147m78.405 3.013-2.111-3.013m2.111 3.013 2.189 3.127m-2.189-3.127h38.85m-40.961-3.013h38.148m-114.442 0H720m38.147 0-.678-2.907m115.12 2.907 2.813 3.013m-117.933-5.92H720m118.741 9.047.561.8.851 1.215.862 1.232m-2.274-3.247h39.581m-2.92-3.127.36.385 2.56 2.742m0 0 .372.4.375.4.376.404 1.908 2.043m-80.677 0 1.575 3.374m-1.575-3.374h40.339m-40.339 0h-40.338m80.677 0 2.362 3.374m-2.362-3.374h40.338m0 0 2.35 2.518.4.427.4.429m-82.252 0h41.126m-41.126 0h-41.125m84.707 3.508.314.448.316.45.316.453 1.61 2.3m-2.556-3.651-1.24-1.772-.306-.437-.305-.435-.605-.864m2.456 3.508h41.945m-44.401-3.508h41.126m-123.377 0H720m41.126 0-.788-3.374m124.165 3.374 3.275 3.508m-127.44-6.882H720m128.389 10.532 2.324 3.318.338.484m-2.662-3.802h42.797m-3.408-3.65.839.898 2.569 2.752m0 0 1.314 1.407 2.235 2.395m-87.368 0 .916 1.96.231.497.703 1.506m-1.85-3.963h43.684m-43.684 0h-43.683m87.367 0 2.775 3.963m-2.775-3.963h43.684m0 0 3.699 3.963m-89.217 0h44.609m-44.609 0h-44.609m92.112 4.134-2.894-4.134m2.894 4.134 3.023 4.317m-3.023-4.317h45.574M853.826 46.8h44.608m-133.826 0H720m44.608 0-.235-1.007-.462-1.981-.227-.975m134.75 3.963 3.86 4.134m-138.61-8.097H720M859.743 55.25l2.356 3.365.804 1.147m-3.16-4.512h46.582m-4.031-4.317 4.031 4.317m0 0 2.082 2.23 2.13 2.282m-95.268 0 2.203 4.72m-2.203-4.72h47.634m-47.634 0h-47.635m95.269 0 3.305 4.72m-3.305-4.72h47.634m0 0 4.407 4.72m-97.472 0h48.736m-48.736 0h-48.736m100.935 4.945-.882-1.257-2.581-3.687m3.463 4.944 3.629 5.185m-3.629-5.185h49.89m-53.353-4.944h48.736m-146.208 0H720m48.736 0-1.102-4.721m147.31 4.72 4.617 4.945m-151.927-9.665H720m153.3 14.85 3.811 5.442m-3.811-5.442h51.1m-4.839-5.185 4.839 5.185m0 0 5.081 5.442m-104.74 0 2.67 5.72m-2.67-5.72h52.37m-52.37 0h-52.37m104.74 0 4.005 5.72m-4.005-5.72h52.37m0 0 5.34 5.72m-107.41 0h53.705m-53.705 0h-53.706m111.625 6.018-4.214-6.019m4.214 6.02 4.441 6.341m-4.441-6.342h55.11m-59.324-6.019h53.705m-161.116 0H720m53.705 0-1.172-5.02-.162-.699m162.45 5.72 5.619 6.018M772.371 80.055H720m169.771 18.08 4.686 6.693m-4.686-6.693h56.59m-5.921-6.342 4.411 4.725 1.51 1.617m0 0 6.248 6.693m-116.305 0 3.302 7.071m-3.302-7.071h58.153m-58.153 0h-58.152m116.305 0 4.951 7.071m-4.951-7.071h58.152m0 0 6.602 7.071m-119.605 0h59.802m-59.802 0h-59.803m124.847 7.486-5.242-7.486m5.242 7.486 5.556 7.936m-5.556-7.936h61.549m-66.791-7.486h59.803m-179.408 0H720m59.803 0-1.651-7.071m181.059 7.071 6.988 7.486m-188.047-14.557H720m190.206 22.493 5.902 8.428m-5.902-8.428h63.402m-7.409-7.936 7.409 7.936m0 0 7.869 8.428m-130.739 0 4.186 8.968m-4.186-8.968h65.37m-65.37 0h-65.369m130.739 0 6.279 8.968m-6.279-8.968h65.369m0 0 8.372 8.968m-134.925 0h67.463m-67.463 0h-67.462m141.619 9.561-6.694-9.561m6.694 9.561 7.153 10.216m-7.153-10.216h69.694m-76.388-9.561h67.462m-202.387 0H720m67.462 0-2.093-8.968m204.48 8.968 8.926 9.561m-213.406-18.529H720m216.234 28.745 7.66 10.939m-7.66-10.939h72.076m-9.535-10.216 9.535 10.216m0 0 10.22 10.939m-149.268 0 5.482 11.742m-5.482-11.742h74.632m-74.632 0h-74.631m149.263 0 8.222 11.742m-8.222-11.742h74.636m0 0 10.96 11.742m-154.746 0h77.372m-77.372 0h-77.372m163.593 12.638-8.849-12.638m8.849 12.638 9.55 13.64m-9.55-13.64h80.325m-89.174-12.638h77.374m-232.118 0H720m77.372 0-2.741-11.742m234.859 11.742 11.8 12.638m-246.659-24.38H720m250.515 38.02 10.339 14.766m-10.339-14.766h83.505m-12.73-13.64 12.73 13.64m0 0 13.79 14.766m-173.907 0 7.486 16.036m-7.486-16.036h86.951m-86.951 0h-86.951m173.902 0 11.229 16.036m-11.229-16.036h86.956m0 0 14.97 16.036m-181.391 0h90.694m-90.694 0h-90.695m193.626 17.48-12.237-17.48m12.237 17.48 13.39 19.126m-13.39-19.126h94.78m-107.017-17.48h90.697m-272.086 0H720m90.694 0-3.742-16.036m275.828 16.036 16.32 17.48m-292.148-33.516H720m297.71 52.642 14.72 21.017m-14.72-21.017h99.24m-17.85-19.126 17.85 19.126m0 0 19.62 21.017m-208.284 0 10.831 23.203m-10.831-23.203h104.144m-104.144 0H824.143m208.287 0 16.25 23.203m-16.25-23.203h104.14m0 0 21.67 23.203m-109.56 0H939.117m109.563 0h109.56m-219.123 0H829.559m0 0H720m109.559 0-5.416-23.203m0 0H720m-74.937-285.67-.168.359-.167.358-.169.361-.169.363-.34.73-.172.367-.172.37m1.357-2.907h37.468m-37.468 0h-37.47m75.593-2.805.632-2.71m-.632 2.71-.655 2.805m.655-2.805H720m-36.182-2.71.077-.331.078-.33.076-.33.38-1.625m-.611 2.617H720m-71.142-2.617.15-.322.592-1.27.439-.939m-1.181 2.53h35.571m-35.571 0h-35.571m69.244 8.132-.084.358-.083.358-.085.361-.426 1.83m.678-2.907H720m0-2.805v-2.71m0 2.71v2.805m0-5.514V8.078m-35.571 0H720m-35.571 0 .223-.959.075-.317.293-1.255M720 16.21v2.907m35.571-11.038-.223-.959-.075-.317-.073-.316-.074-.314-.072-.313-.074-.312m.591 2.53H720m0 0v-2.53m-76.294 13.569h38.147m-38.147 0h-38.147m75.59 3.013-.09.385-.089.386-.55 2.356m.729-3.127.704-3.013m-.704 3.013H720m-38.147-3.013H720m-114.441 0h-38.148m38.148 0 .515-.737.256-.366.255-.364.254-.363.252-.36.253-.36.249-.357M720 19.116v3.013m-112.407-5.92h-37.468m110.295 9.047-.758 3.247m.758-3.247H720m0-3.127v3.127m0 0v3.247m-80.676 0-1.575 3.374m1.575-3.374h40.338m-40.338 0h-40.339m80.677 0-.788 3.374m.788-3.374H720m0 0v3.374m-82.251 0h41.125m-41.125 0h-41.126m81.433 3.508.818-3.508m-.818 3.508-.852 3.65m.852-3.65H720m-41.126-3.508H720m-123.377 0h-41.126m41.126 0 2.362-3.374M720 31.877v3.508m-121.015-6.882h-40.338m118.557 10.532-.329 1.407-.333 1.43-.226.965m.888-3.802H720m0-3.65v3.65m0 0v3.802m-87.367 0-.916 1.96-.231.497-.703 1.506m1.85-3.963h43.683m-43.683 0h-43.684m87.367 0-.227.975-.462 1.981-.235 1.007m.924-3.963H720m0 0V46.8m-89.217 0h44.609m-44.609 0h-44.609m88.253 4.134.122-.527.843-3.607m-.965 4.134-1.008 4.317m1.008-4.317H720M675.392 46.8H720m-133.826 0h-44.608m44.608 0 2.775-3.963M720 46.8v4.134m-131.051-8.097h-43.684M673.419 55.25l-1.053 4.512m1.053-4.512H720m0-4.317v4.317m0 0v4.512m-95.269 0-2.203 4.72m2.203-4.72h47.635m-47.635 0h-47.634m95.269 0-1.102 4.72m1.102-4.72H720m0 0v4.72m-97.472 0h48.736m-48.736 0h-48.736m96.318 4.945 1.154-4.944m-1.154 4.944-1.21 5.185m1.21-5.185H720m-48.736-4.944H720m-146.208 0h-48.736m48.736 0 3.305-4.721M720 64.483v4.945m-142.903-9.665h-47.634M668.9 74.613l-1.27 5.442m1.27-5.442H720m0-5.185v5.185m0 0v5.442m-104.741 0-2.67 5.72m2.67-5.72h52.371m-52.371 0h-52.37m104.741 0-1.335 5.72m1.335-5.72H720m0 0v5.72m-107.411 0h53.706m-53.706 0h-53.705m106.006 6.018 1.405-6.019m-1.405 6.02-1.48 6.341m1.48-6.342H720m-53.705-6.019H720m-161.116 0h-53.705m53.705 0 4.005-5.719M720 85.775v6.018M562.889 80.055h-52.37m152.891 18.08-1.562 6.693m1.562-6.693H720m0-6.342v6.342m0 0v6.693m-116.304 0-3.302 7.071m3.302-7.071h58.152m-58.152 0h-58.153m116.305 0-1.651 7.071m1.651-7.071H720m0 0v7.071m-119.606 0h59.803m-59.803 0h-59.802m117.858 7.486 1.747-7.486m-1.747 7.486-1.852 7.936m1.852-7.936H720m-59.803-7.486H720m-179.408 0h-59.803m59.803 0 4.951-7.071M720 111.899v7.486m-174.457-14.557h-58.152m169.207 22.493-1.967 8.428m1.967-8.428H720m0-7.936v7.936m0 0v8.428m-130.738 0-4.186 8.968m4.186-8.968h65.369m-65.369 0h-65.37m130.739 0-2.093 8.968m2.093-8.968H720m0 0v8.968m-134.924 0h67.462m-67.462 0h-67.463m132.693 9.561 2.232-9.561m-2.232 9.561-2.384 10.216m2.384-10.216H720m-67.462-9.561H720m-202.387 0h-67.462m67.462 0 6.279-8.968M720 144.717v9.561m-196.108-18.529h-65.369m189.399 28.745-2.553 10.939m2.553-10.939H720m0-10.216v10.216m0 0v10.939m-149.262 0-5.482 11.742m5.482-11.742h74.631m-74.631 0h-74.632m149.263 0-2.741 11.742m2.741-11.742H720m0 0v11.742m-154.744 0h77.372m-77.372 0h-77.372m151.794 12.638 2.95-12.638m-2.95 12.638-3.183 13.64m3.183-13.64H720m-77.372-12.638H720m-232.116 0h-77.372m77.372 0 8.222-11.742M720 187.175v12.638m-223.894-24.38h-74.631m215.02 38.02-3.447 14.766m3.447-14.766H720m0-13.64v13.64m0 0v14.766m-173.903 0-7.486 16.036m7.486-16.036h86.951m-86.951 0h-86.951m173.902 0-3.742 16.036m3.742-16.036H720m0 0v16.036m-181.389 0h90.695m-90.695 0h-90.694m177.309 17.48 4.08-17.48m-4.08 17.48-4.464 19.126m4.464-19.126H720m-90.694-17.48H720m-272.083 0h-90.694m90.694 0 11.229-16.036M720 244.255v17.48m-260.854-33.516h-86.951m248.567 52.642-4.905 21.017m4.905-21.017H720m0-19.126v19.126m0 0v21.017m-208.286 0-10.831 23.203m10.831-23.203h104.143m-104.143 0H407.57m208.287 0-5.416 23.203m5.416-23.203H720m0 0v23.203m-109.559 0H500.883m109.558 0H720m-219.117 0H391.324m0 0H281.765m109.559 0 16.246-23.203m0 0H303.427m191.76-285.67-2.016 1.441-2.054 1.467m4.07-2.907h37.469m-37.469 0h-37.468m78.21-2.805 3.162-2.71m-3.162 2.71-3.273 2.805m3.273-2.805h36.815m-33.653-2.71h36.181m-36.181 0 2.3-1.97.754-.646m-35.571 0h35.571m-35.571 0 1.343-.959 2.2-1.572m-3.543 2.53h-35.571m61.653 8.132-3.392 2.907m3.392-2.907h37.469m2.619-2.805 2.528-2.71m-2.528 2.71-2.619 2.805m5.147-5.514 1.233-1.32.91-.975.301-.322m-35.571 0h35.571m-35.571 0 2.223-1.906.73-.625m25.027 10.662-2.026 2.17-.688.737m45.876-11.038.224-.322.447-.637.663-.947.438-.625m-1.772 2.53h-35.571m0 0 .299-.32.596-.638 1.467-1.572m-88.961 13.569h38.147m-38.147 0h-38.148m72.778 3.013.447-.382.444-.382 1.759-1.507.867-.742m-3.517 3.013-2.724 2.334-.926.793m3.65-3.127h38.851m-35.334-3.013h38.147m-114.442 0h-38.147m38.147 0 3.578-2.19 1.172-.717m109.692 2.907-2.813 3.013m-106.879-5.92h-37.47m101.848 9.047-.465.4-.468.4-1.417 1.215-.478.409-.96.823m3.788-3.247h39.581m2.92-3.127-.36.385-2.56 2.742m0 0-.372.4-.375.4-.376.404-1.908 2.043m-80.676 0-4.725 3.374m4.725-3.374h40.338m-40.338 0h-40.339m80.677 0-3.937 3.374m3.937-3.374h40.338m0 0-3.15 3.374m-82.251 0h41.126m-41.126 0H432.12m78.158 3.508 4.094-3.508m-4.094 3.508-4.26 3.65m4.26-3.65h41.944m-37.85-3.508h41.125m-123.377 0h-41.125m41.125 0 5.512-3.374m117.865 3.374-3.275 3.508m-114.59-6.882h-40.339m108.725 10.532-4.436 3.802m4.436-3.802h42.796m3.408-3.65-.839.898-2.569 2.752m0 0-1.314 1.407-1.334 1.43-.901.965m-87.367 0-2.746 1.96-2.804 2.003m5.55-3.963h43.684m-43.684 0h-43.684m87.368 0-4.625 3.963m4.625-3.963h43.683m0 0-3.699 3.963m-89.218 0h44.609m-44.609 0H407.74m84.393 4.134 4.824-4.134m-4.824 4.134-5.039 4.317m5.039-4.317h45.573M496.957 46.8h44.609m-133.826 0h-44.609m44.609 0 6.474-3.963M541.566 46.8l-3.86 4.134m-123.492-8.097H370.53M487.094 55.25l-1.294 1.11-3.971 3.403m5.265-4.512h46.581m4.031-4.317-4.031 4.317m0 0-.516.553-1.566 1.678-2.13 2.281m-95.268 0-6.612 4.72m6.612-4.72h47.634m-47.634 0h-47.634m95.268 0-5.509 4.72m5.509-4.72h47.634m0 0-4.407 4.72m-97.473 0h48.737m-48.737 0h-48.736m91.702 4.945 3.639-3.117 2.132-1.827m-5.771 4.944-6.05 5.185m6.05-5.185h49.89m-44.119-4.944h48.736m-146.209 0h-48.736m48.736 0 7.714-4.721m138.495 4.72-4.617 4.945m-133.878-9.665h-47.635m125.573 14.85-6.351 5.442m6.351-5.442H515.6m4.839-5.185-4.839 5.185m0 0-5.081 5.442m-104.741 0-8.01 5.72m8.01-5.72h52.37m-52.37 0h-52.37m104.74 0-6.674 5.72m6.674-5.72h52.371m0 0-5.34 5.72m-107.411 0h53.706m-53.706 0h-53.705m100.387 6.018 7.024-6.019m-7.024 6.02-7.401 6.341m7.401-6.342h55.11m-48.086-6.019h53.705m-161.116 0h-53.705m53.705 0 9.345-5.719m151.771 5.72-5.619 6.018M353.408 80.055h-52.371m136.012 18.08-7.81 6.693m7.81-6.693h56.59m5.921-6.342-5.921 6.342m0 0-6.248 6.693m-116.304 0-9.904 7.071m9.904-7.071h58.152m-58.152 0h-58.153m116.305 0-8.253 7.071m8.253-7.071h58.152m0 0-6.602 7.071m-119.606 0h59.803m-59.803 0H301.38m110.871 7.486 8.735-7.486m-8.735 7.486-9.261 7.936m9.261-7.936h61.55m-52.815-7.486h59.803m-179.409 0h-59.802m59.802 0 11.554-7.071m167.855 7.071-6.988 7.486m-160.867-14.557h-58.151m148.207 22.493-9.836 8.428m9.836-8.428h63.402m7.409-7.936-7.409 7.936m0 0-7.869 8.428m-130.738 0-12.559 8.968m12.559-8.968h65.369m-65.369 0h-65.369m130.738 0-10.465 8.968m10.465-8.968h65.369m0 0-8.372 8.968m-134.925 0h67.463m-67.463 0h-67.462m123.767 9.561 11.158-9.561m-11.158 9.561-11.922 10.216m11.922-10.216h69.694m-58.536-9.561h67.462m-202.387 0h-67.462m67.462 0 14.652-8.968m187.735 8.968-8.926 9.561m-178.809-18.529h-65.37m162.563 28.745-12.765 10.939m12.765-10.939h72.079m9.537-10.216-9.537 10.216m0 0-10.213 10.939m-149.263 0-16.444 11.742m16.444-11.742h74.632m-74.632 0h-74.631m149.263 0-13.704 11.742m13.704-11.742h74.631m0 0-10.963 11.742m-154.744 0h77.372m-77.372 0h-77.372m139.996 12.638 14.748-12.638m-14.748 12.638-15.918 13.64m15.918-13.64h80.321m-65.573-12.638h77.372m-232.116 0h-77.371m77.371 0 19.185-11.742m212.931 11.742-11.799 12.638m-201.132-24.38h-74.632m179.525 38.02-17.231 14.766m17.231-14.766h83.505m12.734-13.64-12.734 13.64m0 0-13.784 14.766m-173.903 0-22.458 16.036m22.458-16.036h86.951m-86.951 0H111.34m173.903 0-18.714 16.036m18.714-16.036h86.952m0 0-14.972 16.036m-181.389 0h90.695m-90.695 0H85.14m160.99 17.48 20.399-17.48m-20.399 17.48-22.32 19.126m22.32-19.126h94.774m-74.375-17.48h90.694m-272.083 0H-5.554m90.694 0 26.2-16.036m245.883 16.036-16.319 17.48M111.34 228.219H24.39m199.42 52.642-24.526 21.017m24.526-21.017h99.239m17.855-19.126-17.855 19.126m0 0-19.622 21.017m-208.286 0-32.493 23.203m32.493-23.203h104.143m-104.143 0H-9.003m208.287 0-27.077 23.203m27.077-23.203h104.143m0 0-21.662 23.203m-109.558 0H62.647m109.56 0h109.558m-219.117 0-89.609-.001m17.958-23.202L-26.96 312.87m17.958-10.992H-26.96m372.273-285.67-6.784 2.908m6.784-2.907h37.469m-37.469 0h-37.469m80.83-2.805 5.69-2.71m-5.69 2.71-5.892 2.805m5.892-2.805h36.814m-31.124-2.71h36.182m-36.182 0 5.498-2.616m-35.572 0h35.572m-35.572 0 2.239-.959 3.668-1.572m-5.907 2.53h-35.571m54.063 8.132-6.106 2.907m6.106-2.907h37.468m5.238-2.805 5.058-2.71m-5.058 2.71-5.238 2.805m10.296-5.514 3.681-1.971 1.206-.646m-35.571 0 .674-.322 4.641-2.209m-5.315 2.53h35.571m-15.183 8.132-5.427 2.907m56.181-11.038 4.134-2.53m-4.134 2.53h-35.571m0 0 1.79-.959 2.935-1.572m-101.63 13.569h38.147m-38.147 0h-38.147m69.963 3.013 6.331-3.013m-6.331 3.013-6.568 3.127m6.568-3.127h38.851m-32.52-3.013h38.147m-114.441 0h-38.148m38.148 0 7.462-2.907m106.979 2.907-5.627 3.013m-101.352-5.92h-37.468m93.401 9.047-1.682.8-5.139 2.447m6.821-3.247h39.58m5.839-3.127-5.839 3.127m0 0-6.063 3.247m-80.676 0-.967.415-6.906 2.959m7.873-3.374h40.338m-40.338 0h-40.338m80.676 0-7.086 3.374m7.086-3.374h40.338m0 0-.773.415-5.525 2.959m-82.251 0h41.125m-41.125 0h-41.126m74.883 3.508 7.368-3.508m-7.368 3.508-7.668 3.65m7.668-3.65h41.944m-34.576-3.508h41.126m-123.377 0h-41.126m41.126 0 8.661-3.374m114.716 3.374-6.55 3.508m-108.166-6.882H235.94m98.893 10.532-7.987 3.802m7.987-3.802h42.796m6.816-3.65-6.816 3.65m0 0-7.099 3.802m-87.367 0-9.249 3.963m9.249-3.963h43.683m-43.683 0h-43.684m87.367 0-8.324 3.963m8.324-3.963h43.684m0 0-7.399 3.963m-89.217 0h44.608m-44.608 0h-44.609m80.533 4.134 8.684-4.134m-8.684 4.134-9.068 4.317m9.068-4.317h45.573M318.522 46.8h44.609m-133.826 0h-44.608m44.608 0 10.174-3.963M363.131 46.8l-7.72 4.134m-115.932-8.097h-43.684M300.77 55.25l-9.478 4.512m9.478-4.512h46.581m8.06-4.317-8.06 4.317m0 0-8.425 4.512m-95.268 0-11.019 4.72m11.019-4.72h47.634m-47.634 0h-47.635m95.269 0-9.917 4.72m9.917-4.72h47.634m0 0-8.815 4.72m-97.472 0h48.736m-48.736 0h-48.736m87.086 4.945 10.386-4.944m-10.386 4.944-10.891 5.185m10.891-5.185h49.889m-39.503-4.944h48.736m-146.208 0h-48.736m48.736 0 12.12-4.721m134.088 4.72-9.233 4.945m-124.855-9.665h-47.634m111.709 14.85-11.431 5.442m11.431-5.442h51.1m9.68-5.185-9.68 5.185m0 0-10.161 5.442m-104.741 0-13.348 5.72m13.348-5.72h52.371m-52.371 0h-52.369m104.74 0-12.015 5.72m12.015-5.72h52.37m0 0-10.679 5.72m-107.41 0h53.704m-53.704 0h-53.706m94.767 6.018 12.643-6.019m-12.643 6.02-13.321 6.341m13.321-6.342h55.111m-42.468-6.019h53.706m-161.116 0H75.537m53.705 0 14.685-5.719m146.431 5.72-11.238 6.018M143.927 80.055H91.556m119.132 18.08-14.058 6.693m14.058-6.693h56.59m11.842-6.342-11.842 6.342m0 0-12.495 6.693m-116.305 0-16.506 7.071m16.506-7.071h58.152m-58.152 0H80.326m116.304 0-14.855 7.071m14.855-7.071h58.153m0 0-13.205 7.071m-119.606 0h59.803m-59.803 0H62.169m103.882 7.486 15.724-7.486m-15.724 7.486-16.669 7.936m16.669-7.936h61.55m-45.826-7.486h59.803m-179.409 0H2.367m59.802 0 18.157-7.071m161.252 7.071-13.977 7.486M80.326 104.828H22.174m127.208 22.493-17.705 8.428m17.705-8.428h63.402m14.817-7.936-14.817 7.936m0 0-15.738 8.428m-130.738 0-20.93 8.968m20.93-8.968h65.369m-65.369 0H.938m130.739 0-18.837 8.968m18.837-8.968h65.369m0 0-16.744 8.968m-134.924 0h67.462m-67.463 0h-67.462m114.84 9.561 20.085-9.561m-20.085 9.561-21.458 10.216m21.458-10.216h69.694m-49.609-9.561h67.462m-202.387 0L.94 135.749m-23.024 8.968h-4.876m4.876 0-4.876 1.899m207.263-1.899-17.853 9.561M.939 135.749h-27.9m98.258 28.745L48.32 175.433m22.978-10.939h72.078m19.074-10.216-19.074 10.216m0 0-20.426 10.939m-149.262 0H48.32m-74.632 0h-.648m.648 0-.648.277m75.28-.277-24.667 11.742m24.667-11.742h74.63m0 0-21.924 11.742m-103.92 12.638 26.547-12.638m-26.547 12.638h80.322m-80.322 0H-26.96m24.066 0L-26.96 211.27m50.613-24.095h77.373m-77.373 0H-26.96m127.986 0-23.598 12.638m0 0-25.468 13.64m0 0-27.57 14.766m27.57-14.766h-78.92m51.35 14.766-29.943 16.036m29.943-16.036h-51.35m21.407 16.036H-26.96m21.407 0L-26.96 255.72M195.437 16.209l-9.498 2.907m9.498-2.907h37.469m-37.469 0h-37.469m83.449-2.805 8.219-2.71m-8.219 2.71-8.511 2.805m8.511-2.805h36.814m-28.595-2.71h36.181m-36.181 0 7.941-2.616m-35.571 0h35.571m-35.571 0 8.268-2.53m-8.268 2.53h-35.571m46.471 8.13-8.82 2.908m8.82-2.907h37.469m7.856-2.805 7.586-2.71m-7.586 2.71-7.856 2.805m15.442-5.514 7.331-2.617m-35.571 0 .973-.322 6.704-2.209m-7.677 2.53h35.571m-22.773 8.132-8.142 2.907m66.485-11.038 6.497-2.53m-6.497 2.53h-35.57m0 0 .898-.322 6.188-2.209M185.939 19.116h38.147m-38.147 0h-38.147m67.15 3.013 9.144-3.013m-9.144 3.013-9.488 3.127m9.488-3.127h38.851m-29.707-3.013h38.147m-114.441 0h-38.147m38.147 0 10.176-2.907m104.265 2.907-8.44 3.013m-95.825-5.92h-37.469m84.955 9.047-9.852 3.247m9.852-3.247h39.58m8.759-3.127-1.078.385-7.681 2.742m0 0-9.094 3.247m-80.676 0-11.023 3.374m11.023-3.374h40.338m-40.338 0h-40.338m80.676 0-10.235 3.374m10.235-3.374h40.338m0 0-9.448 3.374m-82.251 0h41.126m-41.126 0h-41.126m71.608 3.508 10.644-3.508m-10.644 3.508-11.076 3.65m11.076-3.65h41.944m-31.3-3.508h41.125m-123.377 0H61.99m41.125 0 11.811-3.374m111.566 3.374-9.825 3.508m-101.741-6.882H74.588m89.059 10.532-11.535 3.802m11.535-3.802h42.796m10.224-3.65-10.224 3.65m0 0-10.648 3.802m-87.367 0L95.479 46.8m12.949-3.963h43.684m-43.684 0H64.744m87.368 0L140.088 46.8m12.024-3.963h43.683m0 0L184.697 46.8m-89.218 0h44.609m-44.609 0H50.871m76.673 4.134 12.544-4.134m-12.544 4.134-13.098 4.317m13.098-4.317h45.574m-33.03-4.134h44.609m-133.826 0H6.262m44.609 0 13.873-3.963M184.697 46.8l-11.579 4.134M64.744 42.837H21.061m93.385 12.414-13.691 4.512m13.691-4.512h46.581m12.091-4.317-12.091 4.317m0 0-12.638 4.512m-95.269 0-15.425 4.72m15.425-4.72h47.635m-47.635 0H5.487m95.268 0-14.324 4.72m14.324-4.72h47.634m0 0-13.222 4.72m-97.472 0H86.43m-15.003 4.945 15.003-4.944m-15.003 4.944-15.73 5.185m15.73-5.185h49.891M86.43 64.484h48.736m0 0-13.848 4.944M5.487 59.763h-32.448m82.659 14.85-16.513 5.442m16.513-5.442h51.1m14.521-5.185-14.521 5.185m0 0-15.242 5.442m-104.741 0h52.37m-52.37 0h-13.776m13.776 0-13.776 4.216m66.147-4.216-17.355 5.72m17.354-5.72h52.371m0 0-16.02 5.72M3.57 91.792l18.262-6.019M3.57 91.794l-19.242 6.341M3.57 91.793h55.11m-55.11 0h-30.53m48.792-6.019h53.706m-53.706 0H-26.96m102.498 0-16.857 6.02m-85.793-7.477.152-.046m11.288 13.864h56.59m-56.59 0H-26.96m11.288 0-11.288 3.72m85.64-10.062-17.762 6.342m0 0-18.744 6.693m0 0-19.806 7.071m19.806-7.071H-26.96m8.363 14.557 20.965-7.486m-20.965 7.486h-8.363m8.363 0-8.363 2.986m29.328-10.472H-26.96m72.523-95.69L33.35 19.116m12.21-2.907h37.47m-37.47 0H8.093m86.068-2.805 10.748-2.71m-10.748 2.71-11.13 2.805m11.13-2.805h36.815m-26.067-2.71h36.182m-36.182 0 10.384-2.616m-35.57 0h35.57m-35.57 0 10.63-2.53m-10.63 2.53H44.15m38.88 8.13-11.533 2.908m11.533-2.907h37.468m10.476-2.805 10.115-2.71m-10.115 2.71-10.476 2.805m20.591-5.514 9.773-2.617m-35.571 0h35.571m-35.571 0 10.041-2.53m-4.834 10.66-10.854 2.908m76.79-11.038 8.858-2.53m-8.858 2.53h-35.572m0 0 9.45-2.53M33.351 19.115h38.147m-38.147 0H-4.797m64.336 3.013 11.959-3.013m-11.959 3.013-12.407 3.127M59.54 22.13h38.85m-26.892-3.013h38.147m-114.441 0L8.092 16.21m-12.889 2.907H-26.96m136.606 0L98.39 22.129M8.092 16.21H-26.96m74.093 9.047L34.25 28.503m12.883-3.247h39.58M98.39 22.13l-11.677 3.127m0 0-12.125 3.247m-80.677 0-14.173 3.374m14.173-3.374H34.25m-40.338 0H-26.96m61.21 0-13.385 3.374m13.385-3.374h40.339m0 0L61.99 31.877M6.946 35.385l13.918-3.508M6.946 35.385l-14.484 3.65m14.484-3.65H48.89m-41.944 0h-33.907m47.825-3.508h-41.126m41.126 0H61.99m-82.252 0-6.699 1.594m6.7-1.594h-6.7m88.95 0-13.1 3.508m-56.427 3.65-15.085 3.802m15.085-3.802h42.796m-42.796 0h-19.423m75.85-3.65-13.631 3.65m0 0L21.06 42.837m-43.684 0H21.06m-43.684 0-4.338 1.093m4.338-1.093h-4.338m48.022 0L6.262 46.8m-15.438 4.134L6.262 46.8m-15.438 4.134-16.121 4.317m16.12-4.317H-26.96M6.262 46.8H-26.96m-.233 0h.233m1.663 8.45h-1.663m1.663 0-1.663.446m-.402.108.402-.108m10.68-42.292 12.643-2.71m-12.644 2.71H-26.96m10.68 0-10.68 2.287m23.323-4.996L8.58 8.078m-12.218 2.617H-26.96m71.112-2.617 11.22-2.53m-11.22 2.53H8.58m0 0 11.81-2.53M8.58 8.077h-35.541m1236.691-2.53h34.98m-34.98 0h-34.98m61.39-2.448 2.11.604 6.46 1.843m-8.57-2.447h34.41m-25.84 2.447h34.98m-9.14-2.447 2.25.604 1.14.304 5.75 1.54m0 0h34.98m0 0h34.98m-174.9 0h-34.98m209.88 0h34.98m0 0L1373.77 3.1m10.86 2.447h34.98M1373.77 3.1h34.41M1069.8 5.547h34.99m-34.99 0h-34.98M1098.5 3.1l1.55.604.78.304 3.96 1.54M1098.5 3.1h34.41m-28.12 2.447h34.98m-6.86-2.447 6.86 2.447m-104.95 0h-34.977m-69.96 0h34.98m-34.98 0h-34.981M960.864 3.1l.493.301.494.303.497.304 2.515 1.54M960.864 3.1h34.409m-30.41 2.447h34.98m-4.57-2.447 4.57 2.447m-104.941 0h-34.981m-69.96 0h34.98m-34.98 0H754.98M823.228 3.1l1.713 2.447M823.228 3.1h34.409m-32.696 2.447h34.98M857.637 3.1l.282.301.282.303.284.304 1.436 1.54m-104.941 0H720m-69.961 0h34.981m-34.981 0h-34.98M685.591 3.1l-.571 2.447m.571-2.447H720m-34.98 2.447H720m0-2.447v2.447m-104.941 0h-34.981m-69.961 0h34.981m-34.981 0h-34.98M547.954 3.1l-.705.604-1.429 1.224-.722.62m2.856-2.448h34.409m-37.265 2.447h34.98m2.285-2.447-.282.301-.282.303-.284.304-1.437 1.54m-104.941 0h-34.98m-69.961 0h34.98m-34.98 0h-34.981M410.318 3.1l-1.27.604-.639.304-3.233 1.54m5.142-2.448h34.409m-39.551 2.447h34.981m4.57-2.447-.563.301-4.007 2.146m-104.942 0h-34.981m-69.96 0h34.98m-34.98 0h-34.981M272.681 3.1l-1.834.604-.923.304-4.67 1.54m7.427-2.448h34.409m-41.836 2.447h34.98M307.09 3.1l-.845.301-6.011 2.146m-104.941 0h-34.98m-69.961 0h34.981m-34.981 0h-34.98M135.043 3.1l-9.711 2.447m9.711-2.447h34.409m-44.12 2.447h34.98m9.14-2.447-2.256.604-1.136.304-5.748 1.54m-104.942 0H20.39M-2.592 3.1-14.59 5.547M-2.592 3.1h34.409m-34.41 0H-26.96m12.371 2.447h34.98m-34.98 0L-26.96 8.072m12.371-2.525H-26.96M31.817 3.1l-2.821.604-8.605 1.843M1408.18 3.1l2.82.604 8.61 1.843m0 0h34.98m0 0 12.37 2.525m-12.37-2.525h12.37m0 116.824v-2.986m0 2.986v4.95m0-7.936v-7.486m0 15.422v8.428m0 0v8.968m0-80.233v-4.721m0 4.72v4.548m0-65.931v2.447m0 0v2.525m0 0 .03.006h-.03m0-.006v.006m0 0v2.617m0 0v2.709m0 0v2.287m0 0v.518m0 0v2.907m0 0v3.013m0 0v1.984m0 0v1.143m0 0v3.247m0 0v3.374m0 0v1.594m0 0v1.914m0 0v3.65m0 0v3.802m0 0v1.093m0 0v2.87m0 0v4.134m0 0v4.317m0 0v.445m0 0v4.067m0 9.665v5.185m0-5.185v-.397m0 5.582v5.442m0 0v4.216m0 0v1.503m0 0v6.02m0 0v6.341m0 0v3.72m0 0v2.973m0 0v7.071m0 32.818v1.899m0 0v7.662m0 0v10.216m0 0v10.939m0 0v.277m0 0v11.465m0 0v12.638m0 0v11.457m0 0v2.183m0 0v14.766m0 0v16.036m0 0v11.465m0 0v6.015m0 0v19.126m0 0v21.017m0 0v10.992m0 0v12.21m0 0v.083H-26.961v-.083m0-255.652v5.185m0-5.185v-.397m0 0v-4.547m0 0v-4.721m0 0v-4.067m0 0v-.445m0 0v-4.317m0 0V46.8m0 0v-2.87m0 0v-1.093m0 0v-3.802m0 0v-3.65m0 0V33.47m0 0v-1.594m0 0v-3.374m0 0v-3.247m0 0v-1.143m0 0V22.13m0 0v-3.013m0 0V16.21m0 0v-.518m0 0v-2.287m0 0v-2.71m0 0V8.079m0 0h-.03l.03-.006m0 .006v-.006m0 0V5.547m0 0V3.1m0 321.98v-12.21m0 0v-10.992m0 0v-21.017m0 0v-19.126m0 0v-6.015m0 0v-11.465m0 0v-16.036m0 0v-14.766m0 0v-2.183m0 0v-11.457m0 0v-12.638m0 0V175.71m0 0v-.277m0 0v-10.939m0 0v-10.216m0 0v-7.662m0 0v-1.899m0 0v-8.968m0 0v-8.428m0 0v-4.95m0 0v-2.986m0 0v-7.486m0 0v-7.071m0 0v-2.973m0 0v-3.72m0 0v-6.342m0 0v-6.019m0 0v-1.503m0 0v-4.216m0 0v-5.442"/><defs><linearGradient id="a" x1="720" x2="720" y1=".73" y2="228.198" gradientUnits="userSpaceOnUse"><stop stop-color="#CED2DF" stop-opacity="0"/><stop offset="1" stop-color="#5D606A"/></linearGradient></defs></svg>