<svg xmlns="http://www.w3.org/2000/svg" width="60" height="61" fill="none"><path fill="#000" d="M55 5.094h-2.5v2.5H55v-2.5Zm2.5 2.5v45H55v-37.5H5v37.5H2.5v-45H5v5h50v-5h2.5Z"/><path fill="#0F0" d="M52.5 32.594H50v5h2.5v-5Zm-2.5-25h-2.5v2.5H50v-2.5Zm-2.5 35H45v2.5h2.5v-2.5Zm-2.5 2.5v2.5h-2.5v2.5h-5v-2.5H40v-2.5h5Z"/><path fill="#00B800" d="M50 30.094v10h-2.5v2.5H45v2.5h-2.5v-5H45v-2.5h2.5v-5H45v-5h2.5v2.5H50Z"/><path fill="#0F0" d="M45 7.594h-7.5v2.5H45v-2.5Z"/><path fill="#054905" d="M45 5.094h-5v2.5h5v-2.5Z"/><path fill="#0F0" d="M47.5 25.094v2.5H45v2.5h-2.5v-5H40v-2.5h-2.5v-2.5h5v2.5H45v2.5h2.5Z"/><path fill="#054905" d="M52.5 7.594v-2.5H45v5h-7.5v-2.5H35v2.5H25v2.5h30v-5h-2.5Zm-2.5 2.5h-2.5v-2.5H50v2.5Z"/><path fill="#00B800" d="M35 22.594h-2.5v7.5H35v-7.5Z"/><path fill="#0F0" d="M35 7.594h-2.5v2.5H35v-2.5Z"/><path fill="#00B800" d="M32.5 37.594H30v2.5h2.5v-2.5Zm-2.5 5h-2.5v7.5H30v-7.5Z"/><path fill="#0F0" d="M35 17.594v5h-2.5v15H30v5h-2.5v10H25v-12.5h2.5v-7.5H30v-12.5h2.5v-2.5H35Zm-5-10h-5v2.5h5v-2.5Z"/><path fill="#00B800" d="M22.5 47.594h-5v2.5h5v-2.5Z"/><path fill="#060" d="M52.5 15.094v5H50v5h-5v-2.5h-2.5v-2.5h-5v2.5H40v5h-2.5v5H35v2.5h-2.5v-5H35v-12.5h-2.5v2.5H30v12.5h-2.5v7.5h-5v5h-5v-5H15v-2.5h-2.5v-5H15v-2.5h2.5v-5H20v-2.5h2.5v-2.5h-5v2.5H15v2.5h-2.5v5H10v2.5H7.5v5H10v2.5h2.5v5H15v2.5h2.5v2.5H15v2.5h-2.5v2.5h-5v-2.5H5v-37.5h47.5Z"/><path fill="#0F0" d="M22.5 20.094v2.5H20v2.5h-2.5v5H15v2.5h-2.5v5H15v2.5h-5v-2.5H7.5v-5H10v-2.5h2.5v-5H15v-2.5h2.5v-2.5h5Zm0-12.5H20v2.5h2.5v-2.5Zm-2.5 37.5h-2.5v2.5H20v-2.5Z"/><path fill="#00B800" d="M17.5 42.594v5H15v-2.5h-2.5v-5H15v2.5h2.5Z"/><path fill="#0F0" d="M17.5 40.094H15v2.5h2.5v-2.5Z"/><path fill="#054905" d="M55 15.094v37.5h-2.5v2.5h-40v-2.5H15v-2.5h7.5v-2.5H20v-2.5h2.5v-5H25v12.5h2.5v-2.5H30v-10h2.5v-5H35v-2.5h2.5v-5H40v-2.5h2.5v5H45v2.5h2.5v5H45v2.5h-2.5v5H40v2.5h-2.5v2.5h5v-2.5H45v-2.5h2.5v-5H50v-2.5h2.5v-5H50v-2.5h-2.5v-5H50v-5h2.5v-5H55Z"/><path fill="#000" d="M52.5 55.094h-45v2.5h45v-2.5Zm2.5-2.5h-2.5v2.5H55v-2.5Zm-47.5 0H5v2.5h2.5v-2.5Z"/><path fill="#060" d="M7.5 5.094v2.5H5v5h20v-5h5v2.5h2.5v-2.5H40v-2.5H7.5Zm10 5H10v-2.5h7.5v2.5Zm5 0H20v-2.5h2.5v2.5Z"/><path fill="#000" d="M52.5 2.594h-45v2.5h45v-2.5Z"/><path fill="#0F0" d="M17.5 7.594H10v2.5h7.5v-2.5Z"/><path fill="#000" d="M7.5 5.094H5v2.5h2.5v-2.5Z"/></svg>