<svg xmlns="http://www.w3.org/2000/svg" width="38" height="36" fill="none"><path fill="#fff" d="M13.5 15.168H9.833v3.667H13.5v-3.667Zm7.333 0h-3.666v3.667h3.666v-3.667Zm7.334 0H24.5v3.667h3.667v-3.667ZM13.5 22.5H9.833v3.667H13.5V22.5Zm7.333 0h-3.666v3.667h3.666V22.5Zm7.334 0H24.5v3.667h3.667V22.5Z"/><path fill="#fff" d="M35.5 4.167V2.333h-7.333V.5H24.5v1.833h-11V.5H9.833v1.833H2.5v1.834H.667V33.5H2.5v1.833h33V33.5h1.833V4.167H35.5Zm-1.833 25.666h-1.834v1.834H6.167v-1.834H4.333v-22h1.834V6h3.666v3.667H13.5V6h11v3.667h3.667V6h3.666v1.833h1.834v22Z"/></svg>