<svg xmlns="http://www.w3.org/2000/svg" width="38" height="34" fill="none"><path fill="#fff" d="M8 17h1.833v1.833h11V17h1.834v-1.833H24.5v-11h-1.833V2.333h-1.834V.5h-11v1.833H8v1.834H6.167v11H8V17Zm1.833-9.167h1.834V6H13.5V4.167h3.667V6H19v1.833h1.833V11.5H19v1.833h-1.833v1.834H13.5v-1.834h-1.833V11.5H9.833V7.833Zm16.5 14.668H24.5v-1.833H4.333v1.833H2.5v1.834H.667V33.5h3.666V28h1.834v-1.833H8v-1.833h12.833v1.833h1.834V28H24.5v5.5h3.667v-9.166h-1.834V22.5ZM30 17h1.833v-1.833h1.834v-11h-1.834V2.333H30V.5h-3.667V6h1.834v1.833H30V11.5h-1.833v1.833h-1.834v5.5H30V17Zm5.5 7.335V22.5h-1.833v-1.833H30v5.5h1.833V28h1.834v5.5h3.666v-9.166H35.5Z"/></svg>