<svg xmlns="http://www.w3.org/2000/svg" width="35" height="36" fill="none"><path fill="#000" fill-rule="evenodd" d="M10.895.465H23.16c1.523 0 2.78 0 3.804.083 1.063.087 2.04.274 2.959.742a7.567 7.567 0 0 1 3.307 3.307c.468.918.654 1.896.741 2.96.084 1.023.084 2.28.084 3.803v6.588c0 1.523 0 2.78-.084 3.803-.087 1.064-.273 2.041-.74 2.96a7.567 7.567 0 0 1-3.308 3.307c-.918.468-1.896.654-2.96.74-1.023.085-2.28.085-3.803.085h-.397l-5.735 6.692-5.735-6.692h-.397c-1.524 0-2.78 0-3.804-.084-1.064-.087-2.041-.273-2.96-.741A7.567 7.567 0 0 1 .825 24.71c-.468-.918-.654-1.895-.741-2.959C0 20.727 0 19.471 0 17.948V11.36c0-1.523 0-2.78.084-3.804.087-1.063.273-2.04.741-2.96A7.568 7.568 0 0 1 4.132 1.29C5.051.822 6.028.635 7.092.548 8.116.465 9.372.465 10.895.465ZM7.4 4.32c-.83.067-1.254.19-1.55.341a3.784 3.784 0 0 0-1.653 1.654c-.151.296-.274.72-.342 1.55-.07.85-.07 1.952-.07 3.573v6.431c0 1.621 0 2.723.07 3.574.068.83.19 1.254.342 1.55.362.712.941 1.29 1.653 1.653.296.151.72.274 1.55.342.851.07 1.953.07 3.573.07h2.06l3.995 4.662 3.994-4.661h2.06c1.62 0 2.722-.002 3.574-.071.829-.068 1.253-.19 1.55-.342a3.784 3.784 0 0 0 1.653-1.653c.15-.296.273-.72.341-1.55.07-.851.071-1.953.071-3.574v-6.431c0-1.62-.001-2.722-.07-3.574-.069-.83-.192-1.253-.342-1.55a3.784 3.784 0 0 0-1.654-1.653c-.296-.15-.72-.274-1.55-.341-.851-.07-1.953-.071-3.573-.071H10.973c-1.62 0-2.722.001-3.573.07Zm3.952 2.929 6.46 6.46-6.46 6.459-2.676-2.676 3.784-3.784-3.784-3.784 2.676-2.675Zm5.676 10.243h7.567v3.784h-7.567v-3.784Z" clip-rule="evenodd"/></svg>