<svg xmlns="http://www.w3.org/2000/svg" width="251" height="250" fill="none"><rect width="250" height="250" x=".545" fill="#FF6F00" rx="39.063"/><path fill="#fff" fill-rule="evenodd" d="M104.391 63h43.218c5.366 0 9.795 0 13.403.295 3.747.306 7.192.963 10.428 2.611a26.665 26.665 0 0 1 11.653 11.654c1.649 3.236 2.306 6.68 2.612 10.428.295 3.608.295 8.037.295 13.403v23.214c0 5.366 0 9.796-.295 13.403-.306 3.748-.963 7.192-2.612 10.428a26.666 26.666 0 0 1-11.653 11.654c-3.236 1.648-6.681 2.305-10.428 2.612-3.608.294-8.037.294-13.404.294h-1.398L126 186.578l-20.209-23.582h-1.4c-5.366 0-9.795 0-13.403-.294-3.748-.307-7.192-.964-10.428-2.612a26.667 26.667 0 0 1-11.654-11.654c-1.648-3.236-2.305-6.68-2.611-10.428C66 134.4 66 129.971 66 124.605v-23.214c0-5.366 0-9.795.295-13.403.306-3.748.963-7.192 2.611-10.428A26.666 26.666 0 0 1 80.56 65.906c3.236-1.648 6.68-2.305 10.428-2.611C94.596 63 99.025 63 104.39 63ZM92.074 76.584c-2.923.239-4.418.671-5.46 1.203a13.333 13.333 0 0 0-5.827 5.826c-.532 1.043-.965 2.538-1.203 5.46-.246 3.001-.25 6.883-.25 12.594v22.663c0 5.71.004 9.592.25 12.593.239 2.922.671 4.417 1.203 5.46a13.336 13.336 0 0 0 5.826 5.827c1.043.531 2.538.964 5.46 1.203 3.001.245 6.883.25 12.594.25h7.257L126 166.088l14.076-16.425h7.257c5.711 0 9.593-.005 12.593-.25 2.923-.239 4.418-.672 5.461-1.203a13.337 13.337 0 0 0 5.826-5.827c.532-1.043.965-2.538 1.203-5.46.245-3.001.251-6.883.251-12.593v-22.663c0-5.71-.006-9.593-.251-12.593-.238-2.923-.671-4.418-1.203-5.46a13.334 13.334 0 0 0-5.826-5.827c-1.043-.532-2.538-.965-5.461-1.203-3-.246-6.882-.25-12.593-.25h-42.666c-5.71 0-9.593.004-12.593.25ZM106 86.905l22.762 22.762L106 132.428 96.572 123l13.333-13.333-13.333-13.334L106 86.905ZM126 123h26.667v13.333H126V123Z" clip-rule="evenodd"/></svg>